<?xml version="1.0" encoding="UTF-8" standalone="no"?>
<!-- Created with Inkscape (http://www.inkscape.org/) -->

<svg
   width="77.186157mm"
   height="77.186157mm"
   viewBox="0 0 77.186155 77.186157"
   version="1.1"
   id="svg5"
   inkscape:version="1.1.1 (1:1.1+202109281943+c3084ef5ed)"
   sodipodi:docname="preview.svg"
   inkscape:export-filename="/home/lucasgabmoreno/Descargas/preview.png"
   inkscape:export-xdpi="72"
   inkscape:export-ydpi="72"
   xmlns:inkscape="http://www.inkscape.org/namespaces/inkscape"
   xmlns:sodipodi="http://sodipodi.sourceforge.net/DTD/sodipodi-0.dtd"
   xmlns="http://www.w3.org/2000/svg"
   xmlns:svg="http://www.w3.org/2000/svg">
  <sodipodi:namedview
     id="namedview7"
     pagecolor="#505050"
     bordercolor="#eeeeee"
     borderopacity="1"
     inkscape:pageshadow="0"
     inkscape:pageopacity="0"
     inkscape:pagecheckerboard="0"
     inkscape:document-units="mm"
     showgrid="false"
     fit-margin-top="0"
     fit-margin-left="0"
     fit-margin-right="0"
     fit-margin-bottom="0"
     inkscape:zoom="0.72066326"
     inkscape:cx="224.79292"
     inkscape:cy="243.52567"
     inkscape:window-width="1366"
     inkscape:window-height="741"
     inkscape:window-x="0"
     inkscape:window-y="0"
     inkscape:window-maximized="1"
     inkscape:current-layer="layer1" />
  <defs
     id="defs2" />
  <g
     inkscape:label="Capa 1"
     inkscape:groupmode="layer"
     id="layer1"
     transform="translate(-211.00841,-79.908699)">
    <circle
       style="fill:#222d32;fill-opacity:1;fill-rule:evenodd;stroke-width:0.214837"
       id="path79"
       cx="249.60149"
       cy="118.50178"
       r="38.593079" />
    <g
       id="g23"
       transform="matrix(0.78440569,0,0,0.78440569,224.59726,93.59878)">
      <path
         style="opacity:0.2"
         d="M 32,5 A 28,28 0 0 0 4,33 28,28 0 0 0 32,61 28,28 0 0 0 60,33 28,28 0 0 0 32,5 Z"
         id="path2" />
      <path
         style="fill:#25e2c4"
         d="M 32,4 A 28,28 0 0 0 4,32 28,28 0 0 0 32,60 28,28 0 0 0 60,32 28,28 0 0 0 32,4 Z"
         id="path4-3" />
      <path
         style="opacity:0.2"
         d="m 16,20.99998 16,16 16,-16 z M 48,24.03904 37.51954,34.51952 48,44.99998 Z m -32,0.002 V 45.00002 L 26.48048,34.51952 16,24.041 Z m 11.89454,11.89254 -9.0664,9.0664 h 26.34374 l -9.0664,-9.0664 -1.82618,1.82616 c -1.0134,1.01264 -3.54518,1.01264 -4.55858,0 z"
         id="path6-6" />
      <path
         style="fill:#ffffff"
         d="m 16,19.99998 16,16 16,-16 z M 48,23.03904 37.51954,33.51952 48,43.99998 Z m -32,0.002 V 44.00002 L 26.48048,33.51952 16,23.041 Z m 11.89454,11.89254 -9.0664,9.0664 h 26.34374 l -9.0664,-9.0664 -1.82618,1.82616 c -1.0134,1.01264 -3.54518,1.01264 -4.55858,0 z"
         id="path8-7" />
      <path
         style="opacity:0.2;fill:#ffffff"
         d="M 32,4 A 28,28 0 0 0 4,32 28,28 0 0 0 4.0214844,32.40625 28,28 0 0 1 32,5 28,28 0 0 1 59.978516,32.578125 28,28 0 0 0 60,32 28,28 0 0 0 32,4 Z"
         id="path10-5" />
    </g>
  </g>
</svg>
