<?xml version="1.0" encoding="UTF-8" standalone="no"?>
<svg
   width="77.186157mm"
   height="77.186157mm"
   viewBox="0 0 77.186155 77.186157"
   version="1.1"
   id="svg5"
   inkscape:version="1.2.1 (9c6d41e, 2022-07-14)"
   sodipodi:docname="preview.svg"
   inkscape:export-filename="/home/lucasgabmoreno/Descargas/preview.png"
   inkscape:export-xdpi="72"
   inkscape:export-ydpi="72"
   xmlns:inkscape="http://www.inkscape.org/namespaces/inkscape"
   xmlns:sodipodi="http://sodipodi.sourceforge.net/DTD/sodipodi-0.dtd"
   xmlns="http://www.w3.org/2000/svg"
   xmlns:svg="http://www.w3.org/2000/svg"
   xmlns:rdf="http://www.w3.org/1999/02/22-rdf-syntax-ns#"
   xmlns:cc="http://creativecommons.org/ns#"
   xmlns:dc="http://purl.org/dc/elements/1.1/">
  <metadata
     id="metadata17">
    <rdf:RDF>
      <cc:Work
         rdf:about="">
        <dc:format>image/svg+xml</dc:format>
        <dc:type
           rdf:resource="http://purl.org/dc/dcmitype/StillImage" />
      </cc:Work>
    </rdf:RDF>
  </metadata>
  <sodipodi:namedview
     id="namedview7"
     pagecolor="#505050"
     bordercolor="#eeeeee"
     borderopacity="1"
     inkscape:pageshadow="0"
     inkscape:pageopacity="0"
     inkscape:pagecheckerboard="0"
     inkscape:document-units="mm"
     showgrid="false"
     fit-margin-top="0"
     fit-margin-left="0"
     fit-margin-right="0"
     fit-margin-bottom="0"
     inkscape:zoom="0.72066326"
     inkscape:cx="222.0177"
     inkscape:cy="244.21947"
     inkscape:window-width="1280"
     inkscape:window-height="774"
     inkscape:window-x="0"
     inkscape:window-y="0"
     inkscape:window-maximized="1"
     inkscape:current-layer="layer1"
     inkscape:document-rotation="0"
     inkscape:showpageshadow="0"
     inkscape:deskcolor="#505050" />
  <defs
     id="defs2" />
  <g
     inkscape:label="Capa 1"
     inkscape:groupmode="layer"
     id="layer1"
     transform="translate(-211.00841,-79.908699)">
    <circle
       style="fill:#222d32;fill-opacity:1;fill-rule:evenodd;stroke-width:0.214837"
       id="path79"
       cx="249.60149"
       cy="118.50178"
       r="38.593079" />
    <g
       id="g142"
       transform="matrix(0.70383824,0,0,0.70383824,226.21855,96.594494)">
      <path
         style="opacity:0.2"
         d="M 56.999854,5.0001714 43.003802,10.980623 v 2.464836 c -0.0026,-10e-4 -0.0052,-0.0029 -0.0078,-0.0039 v 1.304684 c 8.8e-5,0.01844 0.004,0.03622 0.004,0.05468 v 23.199151 c 0,3.169743 -1.194436,6.011274 -3.28124,8.042944 -0.0074,0.007 -0.0122,0.0164 -0.0196,0.02342 -0.05654,0.0544 -0.11812,0.10332 -0.17578,0.15626 -0.193099,0.177219 -0.388327,0.351093 -0.593748,0.511716 -1.898234,1.484256 -4.299574,2.26562 -6.929668,2.26562 -6.155538,0 -10.999968,-4.79519 -10.999968,-10.999972 V 34.54695 21.35949 L 7.0000402,27.582126 v 8.531223 c 0,3.664422 0.4880408,7.022514 1.4609332,10.058565 0.9653212,3.036049 2.4631076,5.650236 4.4921746,7.843725 1.71865,1.861891 3.839064,3.371378 6.347637,4.542959 l 0.480468,0.14844 c 0.280512,0.154359 0.557747,0.311399 0.886716,0.441404 C 23.78602,60.380672 27.492041,61 31.777313,61 l -0.0078,-0.0156 c 4.357195,0 8.116838,-0.593066 11.292933,-1.800777 3.177357,-1.198678 5.788399,-2.895047 7.851539,-5.089829 2.054306,-2.18704 3.58389,-4.820934 4.582021,-7.882789 C 56.494133,43.14915 56.996,39.780344 56.996,36.109472 v -0.648436 c 6.4e-5,-0.0056 0.004,-0.01 0.004,-0.0156 V 5.000214 Z"
         id="path2-3" />
      <path
         style="fill:#2165b0"
         d="M 56.999856,4.000179 43.002608,9.9802397 V 33.479391 c 0.01536,5.061945 13.997248,4.63536 13.997248,0.965231 z"
         id="path4" />
      <path
         style="fill:#2165b0"
         d="m 20.99996,20.359897 -13.9999596,6.22342 v 8.531223 c 0,3.664423 0.4865218,7.020952 1.4594142,10.057003 0.9653214,3.036051 2.4631074,5.648673 4.4921744,7.842165 1.71865,1.861887 3.839065,3.372934 6.347638,4.544517 l 3.54918,1.092731 C 34.258124,57.460019 38.319716,48.16555 39.61438,45.646905 h 0.0054 l 0.333657,-0.817573 c -2.015108,2.080204 -4.827922,3.170717 -7.953509,3.170717 -6.155538,0 -10.999968,-4.794428 -10.999968,-10.999211 v -3.453505 z"
         id="path6" />
      <path
         style="fill:#7ec183"
         d="m 42.997184,12.44117 v 1.304294 c 8.6e-5,0.01844 0.0028,0.03622 0.0028,0.05468 V 37.00083 c 0,3.180809 -1.201072,6.033317 -3.30142,8.066385 0.08352,-0.08102 0.173999,-0.154299 0.254989,-0.237891 l -0.333659,0.817575 h -0.0054 c -1.294666,2.518645 -7.258847,10.676633 -18.668565,11.86757 l -1.478404,0.03828 c 0.363562,0.216407 0.753992,0.420229 1.198999,0.596092 3.118052,1.232225 6.825809,1.851167 11.111079,1.851167 l -0.0082,-0.0164 c 4.357195,0 8.116732,-0.591502 11.292829,-1.799213 3.177357,-1.198678 5.787313,-2.89661 7.850453,-5.091393 2.054304,-2.18704 3.586276,-4.81859 4.584405,-7.880445 0.998129,-3.061855 1.497392,-6.432614 1.497392,-10.103487 V 30.734083 C 56.07459,22.382045 48.645258,14.694014 42.997184,12.44117 Z m -3.388228,32.710817 c -0.269349,0.255043 -0.550088,0.497284 -0.84364,0.724606 0.293592,-0.227586 0.574377,-0.469135 0.84364,-0.724606 z"
         id="path8" />
      <path
         style="opacity:0.1;fill:#ffffff"
         d="M 57,4 43.001953,9.9804688 V 10.980469 L 57,5 Z M 21,20.359375 7,26.583984 v 1 L 21,21.359375 Z M 21,37 v 1 c 0,6.204783 4.844462,11 11,11 2.72777,0 5.215621,-0.831786 7.144531,-2.425781 0.174686,-0.344628 0.348868,-0.690716 0.470703,-0.927735 h 0.0039 l 0.333984,-0.816406 C 37.938017,46.910282 35.125587,48 32,48 25.844462,48 21,43.204783 21,37 Z"
         id="path10" />
      <path
         style="opacity:0.1;fill:#ffffff"
         d="m 42.998047,12.441406 v 1 c 5.648074,2.252844 13.076202,9.940931 13.996094,18.292969 v -1 C 56.074249,22.382337 48.646121,14.69425 42.998047,12.441406 Z M 43,37 c 0,3.180809 -1.200433,6.033338 -3.300781,8.066406 0.08352,-0.08102 0.172916,-0.152736 0.253906,-0.236328 l -0.333984,0.816406 h -0.0039 c -0.140156,0.272661 -0.360738,0.638497 -0.611328,1.027344 -2.064184,3.203051 -7.884055,9.777834 -18.058594,10.839844 l -1.478515,0.03906 c 0.363562,0.216407 0.754212,0.419841 1.199219,0.595704 0.260587,0.102981 0.531963,0.194651 0.800781,0.289062 11.062443,-1.384525 16.874099,-9.311916 18.148437,-11.791016 h 0.0039 l 0.333984,-0.816406 c -0.08099,0.08359 -0.170386,0.155308 -0.253906,0.236328 C 41.799567,44.033338 43,41.180809 43,38 Z m -3.390625,8.152344 c -0.269349,0.255043 -0.550198,0.497287 -0.84375,0.724609 0.293592,-0.227586 0.574487,-0.469138 0.84375,-0.724609 z"
         id="path12" />
    </g>
  </g>
</svg>
