<?xml version="1.0" encoding="UTF-8" standalone="no"?>
<!-- Created with Inkscape (http://www.inkscape.org/) -->

<svg
   width="77.186157mm"
   height="77.186157mm"
   viewBox="0 0 77.186155 77.186157"
   version="1.1"
   id="svg5"
   inkscape:version="1.2.2 (b0a8486, 2022-12-01)"
   sodipodi:docname="preview.svg"
   inkscape:export-filename="/home/lucasgabmoreno/Descargas/preview.png"
   inkscape:export-xdpi="72"
   inkscape:export-ydpi="72"
   xmlns:inkscape="http://www.inkscape.org/namespaces/inkscape"
   xmlns:sodipodi="http://sodipodi.sourceforge.net/DTD/sodipodi-0.dtd"
   xmlns="http://www.w3.org/2000/svg"
   xmlns:svg="http://www.w3.org/2000/svg">
  <sodipodi:namedview
     id="namedview7"
     pagecolor="#505050"
     bordercolor="#eeeeee"
     borderopacity="1"
     inkscape:pageshadow="0"
     inkscape:pageopacity="0"
     inkscape:pagecheckerboard="0"
     inkscape:document-units="mm"
     showgrid="false"
     fit-margin-top="0"
     fit-margin-left="0"
     fit-margin-right="0"
     fit-margin-bottom="0"
     inkscape:zoom="1.0191718"
     inkscape:cx="197.21896"
     inkscape:cy="161.89616"
     inkscape:window-width="1280"
     inkscape:window-height="774"
     inkscape:window-x="0"
     inkscape:window-y="0"
     inkscape:window-maximized="1"
     inkscape:current-layer="g228"
     inkscape:showpageshadow="0"
     inkscape:deskcolor="#505050" />
  <defs
     id="defs2" />
  <g
     inkscape:label="Capa 1"
     inkscape:groupmode="layer"
     id="layer1"
     transform="translate(-211.00841,-79.908699)">
    <circle
       style="fill:#222d32;fill-opacity:1;fill-rule:evenodd;stroke-width:0.214837"
       id="path79"
       cx="249.60149"
       cy="118.50178"
       r="38.593079" />
    <g
       id="g78"
       transform="matrix(1.1248724,0,0,1.1248724,-148.92301,-16.844053)">
      <g
         id="g228">
        <g
           id="g511"
           transform="matrix(8.4391436,0,0,8.4391436,-3167.6288,-1253.8432)"
           style="stroke-width:0.118495">
          <rect
             style="opacity:0.2;stroke-width:0.0278716"
             width="4.704237"
             height="2.8225424"
             x="415.01544"
             y="162.21751"
             rx="0.027871531"
             ry="0.027871531"
             id="rect196" />
          <path
             style="fill:#4877b1;stroke-width:0.0278716"
             d="m 415.01543,163.98161 c 0,0.13031 0.10491,0.23521 0.23521,0.23521 h 4.23382 c 0.1303,0 0.23521,-0.1049 0.23521,-0.23521 v -2.58733 c 0,-0.13031 -0.10491,-0.23521 -0.23521,-0.23521 h -2.11691 c -0.35282,0 -0.47042,-0.47043 -0.82324,-0.47043 h -1.29367 c -0.1303,0 -0.23521,0.10491 -0.23521,0.23522"
             id="path198" />
          <rect
             style="opacity:0.2;stroke-width:0.0278716"
             width="4.704237"
             height="2.8225424"
             x="415.01544"
             y="161.98232"
             rx="0.027871531"
             ry="0.027871531"
             id="rect200" />
          <rect
             style="fill:#e4e4e4;stroke-width:0.0278716"
             width="3.7633898"
             height="1.8816949"
             x="415.48587"
             y="161.62949"
             rx="0.027871531"
             ry="0.027871531"
             id="rect202" />
          <rect
             style="fill:#5294e2;stroke-width:0.0278716"
             width="4.704237"
             height="2.8225424"
             x="415.01544"
             y="162.09991"
             rx="0.027871531"
             ry="0.027871531"
             id="rect204" />
          <path
             style="opacity:0.1;fill:#ffffff;stroke-width:0.0278716"
             d="m 415.25064,160.68864 c -0.1303,0 -0.23521,0.10491 -0.23521,0.23522 v 0.1176 c 0,-0.13031 0.10491,-0.23521 0.23521,-0.23521 h 1.29367 c 0.35282,0 0.47042,0.47042 0.82324,0.47042 h 2.11691 c 0.1303,0 0.23521,0.10491 0.23521,0.23522 v -0.11761 c 0,-0.13031 -0.10491,-0.23521 -0.23521,-0.23521 h -2.11691 c -0.35282,0 -0.47042,-0.47043 -0.82324,-0.47043 z"
             id="path206" />
          <path
             style="fill:#1d344f;stroke-width:0.0278716"
             d="m 417.83539,162.57034 c -0.1169,0.004 -0.25827,0.0675 -0.342,0.15359 -0.075,0.0764 -0.14066,0.19829 -0.12302,0.31519 0.13031,0.009 0.26297,-0.0581 0.34412,-0.14419 0.0811,-0.0863 0.13572,-0.2051 0.1209,-0.32459 z m -0.10585,0.47113 c -0.14654,-0.0146 -0.21498,0.0854 -0.28931,0.0854 -0.0743,0 -0.18911,-0.083 -0.31038,-0.0807 -0.15971,0.002 -0.30745,0.0915 -0.38968,0.23286 -0.16594,0.28461 -0.0423,0.70634 0.11944,0.93709 0.079,0.1129 0.17568,0.23591 0.29719,0.23591 0.12161,0 0.16418,-0.0769 0.30813,-0.0769 0.14418,0 0.11266,0.0769 0.23991,0.0769 0.12725,0 0.18606,-0.11831 0.26462,-0.23168 0.0908,-0.13101 0.10373,-0.23874 0.10373,-0.23874 0,0 -0.23333,-0.12043 -0.23569,-0.40174 -0.002,-0.23545 0.23569,-0.35423 0.23569,-0.35423 -0.11055,-0.15971 -0.28226,-0.18158 -0.34365,-0.18417 z"
             id="path208" />
        </g>
      </g>
    </g>
  </g>
</svg>
