<?xml version="1.0" encoding="UTF-8" standalone="no"?>
<!-- Created with Inkscape (http://www.inkscape.org/) -->

<svg
   width="77.186157mm"
   height="77.186157mm"
   viewBox="0 0 77.186155 77.186157"
   version="1.1"
   id="svg5"
   inkscape:version="1.1.1 (1:1.1+202109281943+c3084ef5ed)"
   sodipodi:docname="preview.svg"
   inkscape:export-filename="/home/lucasgabmoreno/Descargas/preview.png"
   inkscape:export-xdpi="72"
   inkscape:export-ydpi="72"
   xmlns:inkscape="http://www.inkscape.org/namespaces/inkscape"
   xmlns:sodipodi="http://sodipodi.sourceforge.net/DTD/sodipodi-0.dtd"
   xmlns="http://www.w3.org/2000/svg"
   xmlns:svg="http://www.w3.org/2000/svg">
  <sodipodi:namedview
     id="namedview7"
     pagecolor="#505050"
     bordercolor="#eeeeee"
     borderopacity="1"
     inkscape:pageshadow="0"
     inkscape:pageopacity="0"
     inkscape:pagecheckerboard="0"
     inkscape:document-units="mm"
     showgrid="false"
     fit-margin-top="0"
     fit-margin-left="0"
     fit-margin-right="0"
     fit-margin-bottom="0"
     inkscape:zoom="0.72066326"
     inkscape:cx="224.79292"
     inkscape:cy="243.52567"
     inkscape:window-width="1366"
     inkscape:window-height="741"
     inkscape:window-x="0"
     inkscape:window-y="0"
     inkscape:window-maximized="1"
     inkscape:current-layer="layer1" />
  <defs
     id="defs2" />
  <g
     inkscape:label="Capa 1"
     inkscape:groupmode="layer"
     id="layer1"
     transform="translate(-211.00841,-79.908699)">
    <circle
       style="fill:#222d32;fill-opacity:1;fill-rule:evenodd;stroke-width:0.214837"
       id="path79"
       cx="249.60149"
       cy="118.50178"
       r="38.593079" />
    <g
       id="g23"
       transform="matrix(0.72749784,0,0,0.72749784,227.1887,95.766555)">
      <rect
         style="fill:#5db43e"
         width="52"
         height="52"
         x="-58"
         y="-58"
         rx="26"
         ry="26"
         transform="matrix(0,-1,-1,0,0,0)"
         id="rect2" />
      <path
         style="opacity:0.2;fill:#ffffff"
         d="M 32,6 C 17.596222,6 6,17.596222 6,32 6,32.11092 6.011605,32.218793 6.017578,32.328125 6.3726906,18.238364 17.821617,7 32,7 46.178383,7 57.627309,18.238364 57.982422,32.328125 57.988345,32.218793 58,32.11092 58,32 58,17.596222 46.403778,6 32,6 Z"
         id="path4-3" />
      <path
         style="opacity:0.2"
         d="M 6.0175781,32.671875 C 6.011605,32.781207 6,32.88908 6,33 6,47.403779 17.596001,59 32,59 46.404,59 58,47.403779 58,33 58,32.88908 57.988345,32.781207 57.982422,32.671875 57.627304,46.761637 46.178602,58 32,58 17.821399,58 6.3726961,46.761637 6.0175781,32.671875 Z"
         id="path6-6" />
      <path
         style="opacity:0.1"
         d="m 32.001953,14.999145 c -1.682106,-0.0174 -3.352506,0.231581 -4.974609,0.675781 -7.553475,2.0262 -13.081404,9.502172 -12.966797,17.326172 H 10 c 2.069963,3.043664 6,8.998047 6,8.998047 0,0 6,-9.000953 6,-9.001953 h -3.917969 c -0.0144,-3.2766 1.215348,-6.571578 3.396485,-9.017578 4.099458,-4.9288 11.522763,-6.980569 17.232422,-2.792969 1.809993,2.3692 5.757599,-0.319189 3.720703,-2.662109 -3.000188,-2.33646 -6.64185,-3.517391 -10.429688,-3.525391 z m 15.998047,9 c 0,0 -6,8.999 -6,9 h 3.917969 c 0.0144,3.2766 -1.215348,6.573531 -3.396485,9.019531 -4.099458,4.9288 -11.522762,6.980569 -17.232422,2.792969 -1.809993,-2.3692 -5.757599,0.319189 -3.720703,2.662109 3.000188,2.33646 6.64185,3.517391 10.429688,3.525391 1.682106,0.0174 3.352506,-0.231581 4.974609,-0.675781 7.553475,-2.0262 13.081404,-9.502172 12.966797,-17.326172 H 54 c -2.069963,-3.043664 -6,-8.998047 -6,-8.998047 z"
         id="path8-7" />
      <path
         style="fill:#3f3f3f"
         d="m 32.001953,14 c -1.682106,-0.0174 -3.352506,0.231581 -4.974609,0.675781 -7.553475,2.0262 -13.081404,9.502172 -12.966797,17.326172 H 10 C 12.069963,35.045617 16,41 16,41 c 0,0 6,-9.000953 6,-9.001953 h -3.917969 c -0.0144,-3.2766 1.215348,-6.571578 3.396485,-9.017578 4.099458,-4.9288 11.522763,-6.980569 17.232422,-2.792969 1.809993,2.3692 5.757599,-0.319189 3.720703,-2.662109 C 39.431453,15.188931 35.789791,14.008 32.001953,14 Z M 48,23 c 0,0 -6,8.999 -6,9 h 3.917969 c 0.0144,3.2766 -1.215348,6.573531 -3.396485,9.019531 -4.099458,4.9288 -11.522762,6.980569 -17.232422,2.792969 -1.809993,-2.3692 -5.757599,0.319189 -3.720703,2.662109 3.000188,2.33646 6.64185,3.517391 10.429688,3.525391 1.682106,0.0174 3.352506,-0.231581 4.974609,-0.675781 7.553475,-2.0262 13.081404,-9.502172 12.966797,-17.326172 H 54 C 51.930037,28.954383 48,23 48,23 Z"
         id="path10-5" />
    </g>
  </g>
</svg>
