<?xml version="1.0" encoding="UTF-8" standalone="no"?>
<!-- Created with Inkscape (http://www.inkscape.org/) -->

<svg
   width="77.186157mm"
   height="77.186157mm"
   viewBox="0 0 77.186155 77.186157"
   version="1.1"
   id="svg5"
   inkscape:version="1.1.2 (1:1.1+202202050852+0a00cf5339)"
   sodipodi:docname="preview.svg"
   inkscape:export-filename="/home/lucasgabmoreno/Descargas/preview.png"
   inkscape:export-xdpi="72"
   inkscape:export-ydpi="72"
   xmlns:inkscape="http://www.inkscape.org/namespaces/inkscape"
   xmlns:sodipodi="http://sodipodi.sourceforge.net/DTD/sodipodi-0.dtd"
   xmlns="http://www.w3.org/2000/svg"
   xmlns:svg="http://www.w3.org/2000/svg">
  <sodipodi:namedview
     id="namedview7"
     pagecolor="#505050"
     bordercolor="#eeeeee"
     borderopacity="1"
     inkscape:pageshadow="0"
     inkscape:pageopacity="0"
     inkscape:pagecheckerboard="0"
     inkscape:document-units="mm"
     showgrid="false"
     fit-margin-top="0"
     fit-margin-left="0"
     fit-margin-right="0"
     fit-margin-bottom="0"
     inkscape:zoom="1.4413265"
     inkscape:cx="233.11859"
     inkscape:cy="148.12743"
     inkscape:window-width="1366"
     inkscape:window-height="741"
     inkscape:window-x="0"
     inkscape:window-y="0"
     inkscape:window-maximized="1"
     inkscape:current-layer="layer1" />
  <defs
     id="defs2" />
  <g
     inkscape:label="Capa 1"
     inkscape:groupmode="layer"
     id="layer1"
     transform="translate(-211.00841,-79.908699)">
    <circle
       style="fill:#222d32;fill-opacity:1;fill-rule:evenodd;stroke-width:0.214837"
       id="path79"
       cx="249.60149"
       cy="118.50178"
       r="38.593079" />
    <g
       id="g23"
       transform="matrix(0.81837304,0,0,0.81837304,223.52082,92.839357)">
      <rect
         style="opacity:0.2"
         width="56"
         height="56"
         x="4"
         y="5"
         rx="2.8"
         ry="2.8"
         id="rect2" />
      <rect
         style="fill:#6946e7"
         width="56"
         height="56"
         x="4"
         y="4"
         rx="2.8"
         ry="2.8"
         id="rect4" />
      <path
         style="opacity:0.2"
         d="m 45.25,16.214042 c -0.18616,-0.02645 -0.366084,0.272403 -0.664062,1 -0.185162,0.452099 -0.478714,1.067112 -0.65625,1.371094 -1.090159,1.86661 -3.086996,3.592189 -5.457032,4.71875 -1.06317,0.505362 -3.068138,1.203633 -3.914062,1.359374 l -0.53125,0.09766 -0.675782,-0.453125 c -0.436863,-0.29248 -0.930109,-0.533996 -1.398437,-0.6875 -0.644144,-0.211134 -0.83455,-0.236863 -1.75,-0.234375 -0.907748,0.003 -1.106548,0.02844 -1.6875,0.230469 -0.774992,0.269501 -1.676848,0.811787 -2.132813,1.28125 -0.17884,0.184139 -0.393898,0.335935 -0.476562,0.335937 -0.08268,0 -0.387915,-0.2011 -0.675781,-0.445313 -0.287872,-0.244208 -0.767307,-0.560378 -1.066407,-0.703124 -0.511449,-0.24409 -1.433409,-0.492906 -1.835937,-0.496094 -0.445894,-0.0036 -1.828366,-1.657152 -2.65625,-2.902344 -0.20304,-0.305384 -0.403538,-0.554688 -0.445313,-0.554688 -0.04175,0 -0.08119,0.159282 -0.08594,0.351563 -0.0048,0.19228 -0.0294,1.234521 -0.05859,2.320313 0.03928,1.227803 -0.04038,1.517122 -0.789062,2.511718 -0.316037,0.388356 -0.55076,0.824099 -0.738281,1.253906 0.264684,0.208599 0.520324,0.431142 0.761718,0.669922 0.414293,-1.211317 1.459461,-2.213012 2.71875,-2.541015 1.744244,-0.454316 3.67407,0.398234 4.492188,1.980469 0.14974,0.289595 0.296847,0.527177 0.328125,0.527343 0.03128,1.66e-4 0.182359,-0.228969 0.332031,-0.511719 0.540374,-1.020724 1.718998,-1.932949 2.90625,-2.242187 0.265472,-0.06914 0.782895,-0.125 1.148438,-0.125 3.443407,0 5.671278,3.60583 4.132812,6.691406 -1.039946,2.085758 -3.477373,3.082795 -5.675781,2.320313 -1.153428,-0.400052 -2.128735,-1.29036 -2.667969,-2.429688 -0.17022,-0.359656 -0.337556,-0.655016 -0.367188,-0.65625 -0.0296,-0.0014 -0.14474,0.15474 -0.257812,0.347656 -0.466624,0.796231 -1.537163,1.558317 -2.515625,1.789063 -0.485628,0.114528 -1.370802,0.07331 -1.951172,-0.07031 0.03362,0.261213 0.05617,0.524426 0.06055,0.789063 0.03295,1.993019 -0.883595,3.73938 -2.537109,4.511719 -0.359411,0.167886 -0.741752,0.256193 -1.166016,0.3125 l 0.482422,0.296875 c 3.07811,1.910906 8.534421,4.229036 11.845703,4.601562 0.429792,0.04834 0.91197,0.102634 1.070312,0.121094 0.703933,0.08194 3.046425,-0.03325 3.980469,-0.195313 0.537802,-0.09332 1.424661,-0.320766 1.972657,-0.503906 1.063504,-0.355442 2.316406,-0.961461 2.316406,-1.121094 0,-0.05324 -0.400759,-0.334236 -0.886719,-0.628906 -0.48595,-0.294676 -1.423085,-0.89992 -2.082031,-1.34375 -1.548624,-1.043044 -1.49507,-1.013816 -1.753906,-0.914062 -0.846537,0.32625 -3.048565,0.412224 -4.605469,0.183594 -1.425476,-0.209334 -3.993199,-0.840838 -4.421875,-1.089844 -0.13672,-0.07942 -0.12447,-0.09195 0.09375,-0.09375 0.13572,-0.0014 0.458662,0.03556 0.71875,0.07813 0.260088,0.04256 1.082108,0.116815 1.824218,0.171875 2.849341,0.211442 5.441558,-0.272529 7.246094,-1.355469 0.619994,-0.372064 0.78125,-0.495993 0.78125,-0.613281 0,-0.05158 -0.224643,-0.314492 -0.496094,-0.585938 -0.780312,-0.78032 -0.644154,-0.8136 0.71875,-0.160156 0.585446,0.280704 0.998998,0.550117 1.359376,0.882812 0.481726,0.444725 0.606063,0.51096 1.832031,0.957032 0.723864,0.263382 1.735368,0.658372 2.25,0.878906 0.51463,0.220532 0.949579,0.402344 0.964843,0.402344 0.06936,0 0.718542,-1.032925 1.089844,-1.734375 1.128576,-2.132098 1.882089,-4.854605 2.289063,-8.261719 0.222164,-1.859914 0.200525,-7.148609 -0.03906,-9.539062 -0.13668,-1.36366 -0.203278,-1.7638 -0.324218,-1.925782 -0.10095,-0.1353 -0.18882,-0.214531 -0.273438,-0.226562 z m -31.847656,9.785156 c -1.692319,0.0078 -2.934922,1.078481 -3.332032,2.917969 -0.2201032,1.0196 0.0883,2.716225 0.714844,3.953125 0.627402,1.238578 1.722402,2.472399 2.824219,3.179687 1.156265,0.742232 1.966702,0.987425 3.125,0.945313 0.645257,-0.02348 0.855868,-0.0716 1.304687,-0.28125 C 19.327483,36.112234 20.0283,34.836218 20,33.124198 c -0.05462,-3.305596 -2.97266,-6.721476 -6.058594,-7.09375 -0.184292,-0.0222 -0.363996,-0.03209 -0.539062,-0.03125 z m 9.671875,0.800781 0.1875,0.371094 c 0.517056,1.036432 -0.15532,2.171875 -1.28125,2.171875 -0.345158,0 -0.550347,-0.05952 -0.820313,-0.242188 -0.44426,-0.300646 -0.457031,-0.300732 -0.457031,-0.0078 0,0.613434 0.572301,1.422091 1.230469,1.734375 0.449618,0.21333 1.217191,0.23075 1.675781,0.03516 1.294612,-0.5522 1.710104,-2.255491 0.820313,-3.359375 -0.290297,-0.360164 -0.858169,-0.703125 -1.164063,-0.703125 z m -9.683594,0.199219 c 0.127432,0.0019 0.247173,0.02571 0.351563,0.07031 0.602121,0.256904 1.06188,0.910385 1.214843,1.730469 0.14168,0.759494 -0.08026,1.596277 -0.519531,1.949219 -0.245246,0.19704 -0.703786,0.302604 -0.976562,0.226562 -1.295562,-0.361256 -1.914482,-2.379356 -1.085938,-3.539062 0.129532,-0.1813 0.36779,-0.316603 0.625,-0.386719 0.128623,-0.03499 0.263192,-0.05268 0.390625,-0.05078 z m 18.683594,0.800781 c -0.03034,-6.6e-4 -0.05411,0.0028 -0.06641,0.01563 -0.02018,0.0206 0.0297,0.15872 0.113282,0.304688 0.569428,0.994314 -0.118741,2.265625 -1.226563,2.265625 -0.306778,0 -0.833755,-0.219247 -0.992187,-0.414063 -0.0583,-0.0717 -0.16038,-0.132812 -0.222656,-0.132812 -0.169181,0 -0.05536,0.577776 0.207031,1.058594 0.564596,1.034555 1.73447,1.3949 2.78125,0.851562 0.512684,-0.266114 0.883681,-0.737381 1.054687,-1.335938 0.208592,-0.730123 -0.0036,-1.483773 -0.582031,-2.054687 -0.253426,-0.250248 -0.854108,-0.553872 -1.066406,-0.558594 z m 4.183593,9.046875 c -0.104798,-0.003 -0.164079,0.02625 -0.246093,0.07813 -0.281564,0.17808 -0.505439,0.453986 -0.507813,0.621094 -0.003,0.201452 0.359567,0.493497 1.644532,1.332031 1.722858,1.124292 3.193654,1.956462 4.84375,2.746094 0.796736,0.38126 1.540297,0.741699 1.652343,0.796875 0.1525,0.07512 0.219535,0.193222 0.265625,0.46875 0.07534,0.450368 0.365746,0.738281 0.75,0.738281 0.14698,0 0.934214,0.240064 1.746094,0.535156 2.056884,0.747626 1.91514,0.678522 2.003906,1 0.1237,0.448018 0.465018,0.970217 0.867188,1.324219 0.267522,0.235484 0.725146,0.467988 1.628906,0.835938 0.689982,0.280914 1.826096,0.780961 2.527344,1.109375 0.701236,0.328418 1.303989,0.58339 1.335937,0.566406 0.03196,-0.017 0.04154,-0.07379 0.02344,-0.128906 -0.0182,-0.05508 -0.240538,-0.839192 -0.496094,-1.742188 -0.70106,-2.477128 -1.044475,-3.252733 -1.761719,-4.019531 -0.660602,-0.706236 -1.466522,-0.959339 -2.53125,-0.789063 l -0.59375,0.09375 -1.457031,-0.933593 c -0.803828,-0.51476 -1.583191,-1.056087 -1.730469,-1.203125 -0.308682,-0.308176 -0.535248,-0.332509 -0.914062,-0.101563 -0.14812,0.09032 -0.322285,0.164063 -0.390625,0.164063 -0.06832,0 -0.422665,-0.16932 -0.785157,-0.375 -1.407817,-0.79883 -4.123136,-1.931116 -6.597656,-2.75 -0.79379,-0.262684 -1.102663,-0.36219 -1.277344,-0.367188 z m 9.363282,3.765625 0.132812,0.1875 c 0.07254,0.1018 0.178699,0.183594 0.234375,0.183594 0.09192,0 2.621723,1.568464 2.785157,1.726563 0.03808,0.03684 -0.007,0.208274 -0.101563,0.382812 -0.09452,0.17454 -0.227303,0.455344 -0.292969,0.625 -0.06564,0.16966 -0.147354,0.306805 -0.183594,0.304688 -0.03624,-0.002 -0.707049,-0.239712 -1.492187,-0.527344 -0.785142,-0.287632 -1.469969,-0.563718 -1.519531,-0.613282 -0.04958,-0.04958 -0.21974,-0.08984 -0.375,-0.08984 h -0.28125 l 0.04687,-0.332031 c 0.05924,-0.441412 0.396722,-1.12141 0.757812,-1.523438 z"
         id="path6" />
      <path
         style="fill:#ffffff"
         d="m 45.25,15.214844 c -0.18616,-0.02645 -0.366084,0.272403 -0.664062,1 -0.185162,0.452099 -0.478714,1.067112 -0.65625,1.371094 -1.090159,1.86661 -3.086996,3.592189 -5.457032,4.71875 -1.06317,0.505362 -3.068138,1.203633 -3.914062,1.359374 l -0.53125,0.09766 -0.675782,-0.453125 c -0.436863,-0.29248 -0.930109,-0.533996 -1.398437,-0.6875 -0.644144,-0.211134 -0.83455,-0.236863 -1.75,-0.234375 -0.907748,0.003 -1.106548,0.02844 -1.6875,0.230469 -0.774992,0.269501 -1.676848,0.811787 -2.132813,1.28125 -0.17884,0.184139 -0.393898,0.335935 -0.476562,0.335937 -0.08268,0 -0.387915,-0.2011 -0.675781,-0.445313 -0.287872,-0.244208 -0.767307,-0.560378 -1.066407,-0.703124 -0.511449,-0.24409 -1.433409,-0.492906 -1.835937,-0.496094 -0.445894,-0.0036 -1.828366,-1.657152 -2.65625,-2.902344 -0.20304,-0.305384 -0.403538,-0.554688 -0.445313,-0.554688 -0.04175,0 -0.08119,0.159282 -0.08594,0.351563 -0.0048,0.19228 -0.0294,1.234521 -0.05859,2.320313 0.03928,1.227803 -0.04038,1.517122 -0.789062,2.511718 -0.316037,0.388356 -0.55076,0.824099 -0.738281,1.253906 0.264684,0.208599 0.520324,0.431142 0.761718,0.669922 0.414293,-1.211317 1.459461,-2.213012 2.71875,-2.541015 1.744244,-0.454316 3.67407,0.398234 4.492188,1.980469 0.14974,0.289595 0.296847,0.527177 0.328125,0.527343 0.03128,1.66e-4 0.182359,-0.228969 0.332031,-0.511719 0.540374,-1.020724 1.718998,-1.932949 2.90625,-2.242187 0.265472,-0.06914 0.782895,-0.125 1.148438,-0.125 3.443407,0 5.671278,3.60583 4.132812,6.691406 -1.039946,2.085758 -3.477373,3.082795 -5.675781,2.320313 -1.153428,-0.400052 -2.128735,-1.29036 -2.667969,-2.429688 -0.17022,-0.359656 -0.337556,-0.655016 -0.367188,-0.65625 -0.0296,-0.0014 -0.14474,0.15474 -0.257812,0.347656 -0.466624,0.796231 -1.537163,1.558317 -2.515625,1.789063 -0.485628,0.114528 -1.370802,0.07331 -1.951172,-0.07031 0.03362,0.261213 0.05617,0.524426 0.06055,0.789063 0.03295,1.993019 -0.883595,3.73938 -2.537109,4.511719 -0.359411,0.167886 -0.741752,0.256193 -1.166016,0.3125 l 0.482422,0.296875 c 3.07811,1.910906 8.534421,4.229036 11.845703,4.601562 0.429792,0.04834 0.91197,0.102634 1.070312,0.121094 0.703933,0.08194 3.046425,-0.03325 3.980469,-0.195313 0.537802,-0.09332 1.424661,-0.320766 1.972657,-0.503906 1.063504,-0.355442 2.316406,-0.961461 2.316406,-1.121094 0,-0.05324 -0.400759,-0.334236 -0.886719,-0.628906 -0.48595,-0.294676 -1.423085,-0.89992 -2.082031,-1.34375 -1.548624,-1.043044 -1.49507,-1.013816 -1.753906,-0.914062 -0.846537,0.32625 -3.048565,0.412224 -4.605469,0.183594 -1.425476,-0.209334 -3.993199,-0.840838 -4.421875,-1.089844 -0.13672,-0.07942 -0.12447,-0.09195 0.09375,-0.09375 0.13572,-0.0014 0.458662,0.03556 0.71875,0.07813 0.260088,0.04256 1.082108,0.116815 1.824218,0.171875 2.849341,0.211442 5.441558,-0.272529 7.246094,-1.355469 0.619994,-0.372064 0.78125,-0.495993 0.78125,-0.613281 0,-0.05158 -0.224643,-0.314492 -0.496094,-0.585938 -0.780312,-0.78032 -0.644154,-0.8136 0.71875,-0.160156 0.585446,0.280704 0.998998,0.550117 1.359376,0.882812 0.481726,0.444725 0.606063,0.51096 1.832031,0.957032 0.723864,0.263382 1.735368,0.658372 2.25,0.878906 0.51463,0.220532 0.949579,0.402344 0.964843,0.402344 0.06936,0 0.718542,-1.032925 1.089844,-1.734375 1.128576,-2.132098 1.882089,-4.854605 2.289063,-8.261719 0.222164,-1.859914 0.200525,-7.148609 -0.03906,-9.539062 -0.13668,-1.36366 -0.203278,-1.7638 -0.324218,-1.925782 -0.10095,-0.1353 -0.18882,-0.214531 -0.273438,-0.226562 z M 13.402344,25 c -1.692319,0.0078 -2.934922,1.078481 -3.332032,2.917969 -0.2201032,1.0196 0.0883,2.716225 0.714844,3.953125 0.627402,1.238578 1.722402,2.472399 2.824219,3.179687 1.156265,0.742232 1.966702,0.987425 3.125,0.945313 0.645257,-0.02348 0.855868,-0.0716 1.304687,-0.28125 C 19.327483,35.113036 20.0283,33.83702 20,32.125 19.945382,28.819404 17.02734,25.403524 13.941406,25.03125 13.757114,25.00905 13.57741,24.99916 13.402344,25 Z m 9.671875,0.800781 0.1875,0.371094 c 0.517056,1.036432 -0.15532,2.171875 -1.28125,2.171875 -0.345158,0 -0.550347,-0.05952 -0.820313,-0.242188 -0.44426,-0.300646 -0.457031,-0.300732 -0.457031,-0.0078 0,0.613434 0.572301,1.422091 1.230469,1.734375 0.449618,0.21333 1.217191,0.23075 1.675781,0.03516 1.294612,-0.5522 1.710104,-2.255491 0.820313,-3.359375 -0.290297,-0.360164 -0.858169,-0.703125 -1.164063,-0.703125 z M 13.390625,26 c 0.127432,0.0019 0.247173,0.02571 0.351563,0.07031 0.602121,0.256904 1.06188,0.910385 1.214843,1.730469 0.14168,0.759494 -0.08026,1.596277 -0.519531,1.949219 -0.245246,0.19704 -0.703786,0.302604 -0.976562,0.226562 C 12.165376,29.615306 11.546456,27.597206 12.375,26.4375 12.504532,26.2562 12.74279,26.120897 13,26.050781 13.128623,26.015791 13.263192,25.998102 13.390625,26 Z m 18.683594,0.800781 c -0.03034,-6.6e-4 -0.05411,0.0028 -0.06641,0.01563 -0.02018,0.0206 0.0297,0.15872 0.113282,0.304688 0.569428,0.994314 -0.118741,2.265625 -1.226563,2.265625 -0.306778,0 -0.833755,-0.219247 -0.992187,-0.414063 -0.0583,-0.0717 -0.16038,-0.132812 -0.222656,-0.132812 -0.169181,0 -0.05536,0.577776 0.207031,1.058594 0.564596,1.034555 1.73447,1.3949 2.78125,0.851562 0.512684,-0.266114 0.883681,-0.737381 1.054687,-1.335938 0.208592,-0.730123 -0.0036,-1.483773 -0.582031,-2.054687 -0.253426,-0.250248 -0.854108,-0.553872 -1.066406,-0.558594 z m 4.183593,9.046875 c -0.104798,-0.003 -0.164079,0.02624 -0.246093,0.07813 -0.281564,0.17808 -0.505439,0.453986 -0.507813,0.621094 -0.003,0.201452 0.359567,0.493497 1.644532,1.332031 1.722858,1.124292 3.193654,1.956462 4.84375,2.746094 0.796736,0.38126 1.540297,0.741699 1.652343,0.796875 0.1525,0.07512 0.219535,0.193222 0.265625,0.46875 0.07534,0.450368 0.365746,0.738281 0.75,0.738281 0.14698,0 0.934214,0.240064 1.746094,0.535156 2.056884,0.747626 1.91514,0.678522 2.003906,1 0.1237,0.448018 0.465018,0.970217 0.867188,1.324219 0.267522,0.235484 0.725146,0.467988 1.628906,0.835938 0.689982,0.280914 1.826096,0.780961 2.527344,1.109375 0.701236,0.328418 1.303989,0.58339 1.335937,0.566406 0.03196,-0.017 0.04154,-0.07379 0.02344,-0.128906 -0.0182,-0.05508 -0.240538,-0.839192 -0.496094,-1.742188 -0.70106,-2.477128 -1.044475,-3.252733 -1.761719,-4.019531 -0.660602,-0.706236 -1.466522,-0.959339 -2.53125,-0.789063 l -0.59375,0.09375 -1.457031,-0.933593 c -0.803828,-0.51476 -1.583191,-1.056087 -1.730469,-1.203125 -0.308682,-0.308176 -0.535248,-0.332509 -0.914062,-0.101563 -0.14812,0.09032 -0.322285,0.164063 -0.390625,0.164063 -0.06832,0 -0.422665,-0.16932 -0.785157,-0.375 -1.407817,-0.79883 -4.123136,-1.931116 -6.597656,-2.75 -0.79379,-0.262684 -1.102663,-0.36219 -1.277344,-0.367188 z m 9.363282,3.765625 0.132812,0.1875 c 0.07254,0.1018 0.178699,0.183594 0.234375,0.183594 0.09192,0 2.621723,1.568464 2.785157,1.726563 0.03808,0.03684 -0.007,0.208274 -0.101563,0.382812 -0.09452,0.17454 -0.227303,0.455344 -0.292969,0.625 -0.06564,0.16966 -0.147354,0.306805 -0.183594,0.304688 -0.03624,-0.002 -0.707049,-0.239712 -1.492187,-0.527344 -0.785142,-0.287632 -1.469969,-0.563718 -1.519531,-0.613282 -0.04958,-0.04958 -0.21974,-0.08984 -0.375,-0.08984 h -0.28125 l 0.04687,-0.332031 c 0.05924,-0.441412 0.396722,-1.12141 0.757812,-1.523438 z"
         id="path8" />
      <path
         style="opacity:0.1;fill:#ffffff"
         d="M 6.8007812,4 C 5.2495812,4 4,5.2495812 4,6.8007812 v 1 C 4,6.2495813 5.2495812,5 6.8007812,5 H 57.199219 C 58.750419,5 60,6.2495812 60,7.8007812 v -1 C 60,5.2495813 58.750419,4 57.199219,4 Z"
         id="path10" />
    </g>
  </g>
</svg>
