<?xml version="1.0" encoding="UTF-8" standalone="no"?>
<svg
   xmlns:dc="http://purl.org/dc/elements/1.1/"
   xmlns:cc="http://creativecommons.org/ns#"
   xmlns:rdf="http://www.w3.org/1999/02/22-rdf-syntax-ns#"
   xmlns:svg="http://www.w3.org/2000/svg"
   xmlns="http://www.w3.org/2000/svg"
   xmlns:sodipodi="http://sodipodi.sourceforge.net/DTD/sodipodi-0.dtd"
   xmlns:inkscape="http://www.inkscape.org/namespaces/inkscape"
   width="77.186157mm"
   height="77.186157mm"
   viewBox="0 0 77.186155 77.186157"
   version="1.1"
   id="svg5"
   inkscape:version="1.0.2 (e86c870879, 2021-01-15)"
   sodipodi:docname="preview.svg"
   inkscape:export-filename="/home/lucasgabmoreno/Descargas/preview.png"
   inkscape:export-xdpi="72"
   inkscape:export-ydpi="72">
  <metadata
     id="metadata17">
    <rdf:RDF>
      <cc:Work
         rdf:about="">
        <dc:format>image/svg+xml</dc:format>
        <dc:type
           rdf:resource="http://purl.org/dc/dcmitype/StillImage" />
      </cc:Work>
    </rdf:RDF>
  </metadata>
  <sodipodi:namedview
     id="namedview7"
     pagecolor="#505050"
     bordercolor="#eeeeee"
     borderopacity="1"
     inkscape:pageshadow="0"
     inkscape:pageopacity="0"
     inkscape:pagecheckerboard="0"
     inkscape:document-units="mm"
     showgrid="false"
     fit-margin-top="0"
     fit-margin-left="0"
     fit-margin-right="0"
     fit-margin-bottom="0"
     inkscape:zoom="0.72066326"
     inkscape:cx="222.7115"
     inkscape:cy="243.52567"
     inkscape:window-width="1280"
     inkscape:window-height="774"
     inkscape:window-x="0"
     inkscape:window-y="0"
     inkscape:window-maximized="1"
     inkscape:current-layer="layer1"
     inkscape:document-rotation="0" />
  <defs
     id="defs2" />
  <g
     inkscape:label="Capa 1"
     inkscape:groupmode="layer"
     id="layer1"
     transform="translate(-211.00841,-79.908699)">
    <circle
       style="fill:#222d32;fill-opacity:1;fill-rule:evenodd;stroke-width:0.214837"
       id="path79"
       cx="249.60149"
       cy="118.50178"
       r="38.593079" />
    <g
       id="g41"
       transform="matrix(0.60875977,0,0,0.60875977,37.037761,-9.1635792)">
      <path
         style="fill:#e4e4e4;stroke-width:3.45144"
         d="m 350.01943,173.77727 a 7.8789606,7.8485878 0 0 0 -4.12582,1.0462 l -23.18407,13.33325 A 7.8789606,7.8485878 0 0 0 318.77,194.954 v 26.6669 a 7.8789606,7.8485878 0 0 0 3.93954,6.79701 l 23.18407,13.33352 a 7.8789606,7.8485878 0 0 0 7.87895,0 l 23.18406,-13.33352 a 7.8789606,7.8485878 0 0 0 3.93941,-6.79701 V 194.954 a 7.8789606,7.8485878 0 0 0 -3.93458,-6.79793 l -23.18681,-13.33325 a 7.8789606,7.8485878 0 0 0 -3.75352,-1.0475 z"
         id="path2-3" />
      <path
         style="opacity:0.2;fill:#ffffff;stroke-width:3.45144"
         d="m 350.01943,173.77832 a 7.8789606,7.8485878 0 0 0 -4.12661,1.04489 l -23.18262,13.33404 a 7.8789606,7.8485878 0 0 0 -3.9402,6.79831 v 1.7257 a 7.8789606,7.8485878 0 0 1 3.9402,-6.79831 l 23.18262,-13.33404 a 7.8789606,7.8485878 0 0 1 4.12556,-1.04489 7.8789606,7.8485878 0 0 1 3.75483,1.04489 l 23.18263,13.33404 a 7.8789606,7.8485878 0 0 1 3.94019,6.79831 v -1.7257 a 7.8789606,7.8485878 0 0 0 -3.94502,-6.79831 l -23.17989,-13.33404 a 7.8789606,7.8485878 0 0 0 -3.75508,-1.04489 z"
         id="path4-6" />
      <path
         style="opacity:0.2;stroke-width:3.45144"
         d="m 318.77,221.62233 v 1.72571 a 7.8789606,7.8485878 0 0 0 3.9402,6.79479 l 23.18262,13.33404 a 7.8789606,7.8485878 0 0 0 7.88039,0 l 23.18263,-13.33404 a 7.8789606,7.8485878 0 0 0 3.94019,-6.79479 v -1.72571 a 7.8789606,7.8485878 0 0 1 -3.94019,6.7948 l -23.18263,13.33404 a 7.8789606,7.8485878 0 0 1 -7.88039,0 l -23.18393,-13.333 a 7.8789606,7.8485878 0 0 1 -3.94019,-6.79584 z"
         id="path6" />
      <path
         style="fill:none;stroke:#a81717;stroke-width:6.9029;stroke-linecap:square;stroke-linejoin:round"
         d="m 336.02663,191.03128 h 27.61148 l -27.61148,34.51455 h 27.61148"
         id="path8" />
    </g>
  </g>
</svg>
