<?xml version="1.0" encoding="UTF-8" standalone="no"?>
<!-- Created with Inkscape (http://www.inkscape.org/) -->

<svg
   width="77.186157mm"
   height="77.186157mm"
   viewBox="0 0 77.186155 77.186157"
   version="1.1"
   id="svg5"
   inkscape:version="1.2.1 (9c6d41e, 2022-07-14)"
   sodipodi:docname="preview.svg"
   inkscape:export-filename="/home/lucasgabmoreno/Descargas/preview.png"
   inkscape:export-xdpi="72"
   inkscape:export-ydpi="72"
   xmlns:inkscape="http://www.inkscape.org/namespaces/inkscape"
   xmlns:sodipodi="http://sodipodi.sourceforge.net/DTD/sodipodi-0.dtd"
   xmlns="http://www.w3.org/2000/svg"
   xmlns:svg="http://www.w3.org/2000/svg">
  <sodipodi:namedview
     id="namedview7"
     pagecolor="#505050"
     bordercolor="#eeeeee"
     borderopacity="1"
     inkscape:pageshadow="0"
     inkscape:pageopacity="0"
     inkscape:pagecheckerboard="0"
     inkscape:document-units="mm"
     showgrid="false"
     fit-margin-top="0"
     fit-margin-left="0"
     fit-margin-right="0"
     fit-margin-bottom="0"
     inkscape:zoom="0.72066326"
     inkscape:cx="224.79292"
     inkscape:cy="133.21062"
     inkscape:window-width="1366"
     inkscape:window-height="742"
     inkscape:window-x="0"
     inkscape:window-y="0"
     inkscape:window-maximized="1"
     inkscape:current-layer="layer1"
     inkscape:showpageshadow="2"
     inkscape:deskcolor="#505050" />
  <defs
     id="defs2" />
  <g
     inkscape:label="Capa 1"
     inkscape:groupmode="layer"
     id="layer1"
     transform="translate(-211.00841,-79.908699)">
    <circle
       style="fill:#222d32;fill-opacity:1;fill-rule:evenodd;stroke-width:0.214837"
       id="path79"
       cx="249.60149"
       cy="118.50178"
       r="38.593079" />
    <g
       id="g2620"
       transform="matrix(0.71385828,0,0,0.71385828,227.25861,95.092279)">
      <rect
         style="opacity:0.2"
         width="56"
         height="56"
         x="4"
         y="5"
         rx="16.799999"
         ry="16.799999"
         id="rect2599" />
      <rect
         style="fill:#4992fd"
         width="56"
         height="56"
         x="4"
         y="4"
         rx="16.799999"
         ry="16.799999"
         id="rect2601" />
      <path
         style="opacity:0.2"
         d="M 17.166016,23 C 15.965681,23 15,23.95547 15,25.142578 V 28.714844 33 37.285156 C 15,40.450777 17.576455,43 20.777344,43 H 28 35.222656 38.833984 C 40.034319,43 41,42.04453 41,40.857422 V 37.285156 33 28.714844 C 41,25.549223 38.423546,23 35.222656,23 H 28 20.777344 Z m 31.564453,0.0039 c -0.424857,-0.03143 -0.908457,0.175682 -1.369141,0.634766 -1.620058,1.614433 -3.519624,2.976695 -4.847656,4.90625 -0.546893,0.7946 -0.509368,1.84658 -0.513672,2.835937 -0.0024,0.542834 0.0028,1.083451 0,1.619141 0.0028,0.53569 -0.0024,1.076308 0,1.619141 0.0043,0.989355 -0.03322,2.041337 0.513672,2.835937 1.328032,1.929555 3.227598,3.291817 4.847656,4.90625 0.460684,0.459084 0.944284,0.666194 1.369141,0.634766 0.708094,-0.05239 1.251953,-0.771047 1.251953,-2.103516 0,-2.608588 0.0382,-5.248248 0,-7.892578 0.0382,-2.64433 0,-5.283991 0,-7.892578 0,-1.33247 -0.543859,-2.051132 -1.251953,-2.103516 z"
         id="path2603" />
      <path
         style="fill:#ffffff"
         d="M 17.166016,22 C 15.965681,22 15,22.95547 15,24.142578 V 27.714844 32 36.285156 C 15,39.450777 17.576455,42 20.777344,42 H 28 35.222656 38.833984 C 40.034319,42 41,41.04453 41,39.857422 V 36.285156 32 27.714844 C 41,24.549223 38.423546,22 35.222656,22 H 28 20.777344 Z m 31.564453,0.0039 c -0.424857,-0.03143 -0.908457,0.175682 -1.369141,0.634766 -1.620058,1.614433 -3.519624,2.976695 -4.847656,4.90625 -0.546893,0.7946 -0.509368,1.84658 -0.513672,2.835937 -0.0024,0.542834 0.0028,1.083451 0,1.619141 0.0028,0.53569 -0.0024,1.076308 0,1.619141 0.0043,0.989355 -0.03322,2.041337 0.513672,2.835937 1.328032,1.929555 3.227598,3.291817 4.847656,4.90625 0.460684,0.459084 0.944284,0.666194 1.369141,0.634766 0.708094,-0.05239 1.251953,-0.771047 1.251953,-2.103516 0,-2.608588 0.0382,-5.248248 0,-7.892578 0.0382,-2.64433 0,-5.283991 0,-7.892578 0,-1.33247 -0.543859,-2.051132 -1.251953,-2.103516 z"
         id="path2605" />
      <path
         style="opacity:0.2;fill:#ffffff"
         d="M 20.800781,4 C 11.493582,4 4,11.493582 4,20.800781 v 1 C 4,12.493582 11.493582,5 20.800781,5 H 43.199219 C 52.506418,5 60,12.493582 60,21.800781 v -1 C 60,11.493582 52.506418,4 43.199219,4 Z"
         id="path2607" />
    </g>
  </g>
</svg>
