<?xml version="1.0" encoding="UTF-8" standalone="no"?>
<!-- Created with Inkscape (http://www.inkscape.org/) -->

<svg
   width="77.186157mm"
   height="77.186157mm"
   viewBox="0 0 77.186155 77.186157"
   version="1.1"
   id="svg5"
   inkscape:version="1.1.1 (1:1.1+202109281943+c3084ef5ed)"
   sodipodi:docname="preview.svg"
   inkscape:export-filename="/home/lucasgabmoreno/Descargas/preview.png"
   inkscape:export-xdpi="72"
   inkscape:export-ydpi="72"
   xmlns:inkscape="http://www.inkscape.org/namespaces/inkscape"
   xmlns:sodipodi="http://sodipodi.sourceforge.net/DTD/sodipodi-0.dtd"
   xmlns:xlink="http://www.w3.org/1999/xlink"
   xmlns="http://www.w3.org/2000/svg"
   xmlns:svg="http://www.w3.org/2000/svg">
  <sodipodi:namedview
     id="namedview7"
     pagecolor="#505050"
     bordercolor="#eeeeee"
     borderopacity="1"
     inkscape:pageshadow="0"
     inkscape:pageopacity="0"
     inkscape:pagecheckerboard="0"
     inkscape:document-units="mm"
     showgrid="false"
     fit-margin-top="0"
     fit-margin-left="0"
     fit-margin-right="0"
     fit-margin-bottom="0"
     inkscape:zoom="1.0191718"
     inkscape:cx="197.21897"
     inkscape:cy="161.40557"
     inkscape:window-width="1366"
     inkscape:window-height="741"
     inkscape:window-x="0"
     inkscape:window-y="0"
     inkscape:window-maximized="1"
     inkscape:current-layer="g228" />
  <defs
     id="defs2" />
  <g
     inkscape:label="Capa 1"
     inkscape:groupmode="layer"
     id="layer1"
     transform="translate(-211.00841,-79.908699)">
    <circle
       style="fill:#222d32;fill-opacity:1;fill-rule:evenodd;stroke-width:0.214837"
       id="path79"
       cx="249.60149"
       cy="118.50178"
       r="38.593079" />
    <g
       id="g78"
       transform="matrix(1.1248724,0,0,1.1248724,-148.92301,-16.844053)">
      <g
         id="g228">
        <g
           id="g90"
           transform="matrix(1.0645927,0,0,1.0645927,-29.708647,0.37938746)"
           style="fill:#ffffff">
          <path
             d="m 387.67336,122.15621 c -0.28046,0 -0.51065,-0.22754 -0.51065,-0.508 0,-0.28046 0.23019,-0.51064 0.51065,-0.51064 0.28045,0 0.51064,0.23018 0.51064,0.51064 0,0.28046 -0.23019,0.508 -0.51064,0.508 m 0,-1.143 c -0.34925,0 -0.635,0.28575 -0.635,0.635 0,0.34925 0.28575,0.635 0.635,0.635 0.34925,0 0.635,-0.28575 0.635,-0.635 0,-0.34925 -0.28575,-0.635 -0.635,-0.635"
             id="path4-3"
             style="fill:#ffffff;stroke-width:0.264583" />
          <path
             d="m 387.71569,121.62175 -0.13494,0.003 -0.003,-0.16404 h 0.13493 c 0.0503,-0.003 0.09,0.0291 0.09,0.0794 0.003,0.0503 -0.037,0.082 -0.0873,0.082 m 0.2196,-0.0847 c -0.003,-0.11113 -0.0794,-0.1905 -0.20373,-0.1905 l -0.2831,0.005 0.008,0.59796 h 0.12964 l -0.003,-0.21432 h 0.0926 l 0.12171,0.21167 0.14552,-0.003 -0.13758,-0.22755 c 0.0635,-0.0159 0.12964,-0.0741 0.12964,-0.17991"
             id="path6"
             style="fill:#ffffff;stroke-width:0.264583" />
          <path
             d="m 338.59688,125.88432 h -1.58724 v -3.66024 h 1.54385 c 0.41645,0 0.67654,0.26881 0.67654,0.63315 0,0.36433 -0.26009,0.62441 -0.67654,0.62441 h -1.7648 v 1.05834 h 1.80819 c 0.48577,0 0.74586,0.3122 0.74586,0.67627 0,0.41646 -0.27755,0.66807 -0.74586,0.66807 m 0.89323,-1.9169 c 0.54663,-0.11271 0.99775,-0.59849 0.99775,-1.32689 0,-0.77205 -0.56383,-1.47452 -1.66556,-1.47452 h -3.04429 v 5.78511 h 3.13981 c 1.10146,0 1.68248,-0.694 1.68248,-1.5613 0,-0.72866 -0.49424,-1.32689 -1.11019,-1.4224"
             id="path10"
             style="fill:#ffffff;stroke-width:0.264583" />
          <path
             d="m 344.20565,123.81126 h -1.33154 v 1.08426 h 0.94128 l 1.13612,2.05555 h 1.41367 l -1.30096,-2.20318 c 0.62468,-0.14738 1.2663,-0.69374 1.2663,-1.71715 m 0,0 c 0,-1.07553 -0.73713,-1.86478 -1.94284,-1.86478 h -2.70616 v 5.78511 h 1.23164 v -4.70085 h 1.29249 c 0.4945,0 0.8673,0.29474 0.8673,0.78052 0,0.48577 -0.3728,0.78052 -0.8673,0.78052"
             id="path12-6"
             style="fill:#ffffff;stroke-width:0.264583" />
          <path
             d="m 355.69402,124.88684 0.90196,-2.4892 0.90223,2.4892 z m 0.13017,-3.72083 -2.23785,5.78511 h 1.40494 l 0.36433,-0.98001 h 2.48074 l 0.3556,0.98001 h 1.4052 l -2.22912,-5.78511 z"
             id="path14-7"
             style="fill:#ffffff;stroke-width:0.264583" />
          <path
             d="m 362.94251,125.86689 h -1.0496 v -3.61686 h 1.0496 c 1.18825,0 1.81266,0.78926 1.81266,1.81293 0,0.98002 -0.6678,1.80393 -1.81266,1.80393 m 0,-4.70085 h -2.28123 v 5.78511 h 2.28123 c 1.81266,0 3.07023,-1.14485 3.07023,-2.88819 0,-1.74334 -1.25757,-2.89692 -3.07023,-2.89692"
             id="path16-5"
             style="fill:#ffffff;stroke-width:0.264583" />
          <path
             d="m 384.67192,121.16485 -1.51712,2.45268 -1.51712,-2.45268 h -1.36154 v 5.78617 h 1.2319 v -3.78169 l 1.32609,2.01665 c 0.15187,0.23045 0.48974,0.23045 0.64135,0 l 1.32635,-2.01665 v 3.78169 h 1.2319 v -5.78617 z"
             id="path18-3"
             style="fill:#ffffff;stroke-width:0.264583" />
          <path
             d="m 350.23622,125.92761 c -1.02421,0 -1.8542,-0.83026 -1.8542,-1.8542 0,-1.0242 0.82999,-1.85446 1.8542,-1.85446 1.02393,0 1.8542,0.83026 1.8542,1.85446 0,1.02394 -0.83027,1.8542 -1.8542,1.8542 m 0,-4.90432 c -1.68461,0 -3.05012,1.36552 -3.05012,3.05012 0,1.68434 1.36551,3.04985 3.05012,3.04985 1.68433,0 3.05011,-1.36551 3.05011,-3.04985 0,-1.6846 -1.36578,-3.05012 -3.05011,-3.05012"
             id="path20-5"
             style="fill:#ffffff;stroke-width:0.264583" />
          <path
             d="m 371.55587,124.97056 c -0.31618,0.57044 -0.92393,0.957 -1.62243,0.957 -1.02394,0 -1.8542,-0.83027 -1.8542,-1.8542 0,-1.02421 0.83026,-1.8542 1.8542,-1.8542 0.69268,0 1.29567,0.38047 1.61396,0.94324 l 0.86519,-0.86493 c -0.55351,-0.77126 -1.45733,-1.27423 -2.47915,-1.27423 -1.6846,0 -3.04985,1.36551 -3.04985,3.05012 0,1.68433 1.36525,3.05011 3.04985,3.05011 1.02738,0 1.93569,-0.50853 2.48814,-1.28719 z"
             id="path22-6"
             style="fill:#ffffff;stroke-width:0.264583" />
          <use
             xlink:href="#path20-5"
             transform="translate(26.119197)"
             id="use8"
             x="0"
             y="0"
             width="100%"
             height="100%"
             style="fill:#ffffff" />
        </g>
        <g
           id="g94"
           transform="matrix(3.0085854,0,0,3.0085854,-636.297,-260.8137)">
          <ellipse
             cx="329.25323"
             cy="124.116"
             rx="4.2958617"
             ry="4.2956033"
             fill="#cc092f"
             id="ellipse24"
             style="stroke-width:0.264583" />
          <path
             d="m 333.0383,125.2765 c -0.49133,-0.1958 -0.94112,-0.13018 -1.39197,0.14314 0,0 -0.16431,0.10027 -0.21352,0.13123 -0.21008,0.13176 -0.40825,0.25665 -0.59875,0.25665 -0.18177,0 -0.36063,-0.0487 -0.4363,-0.40032 -0.11801,-0.54848 -0.40587,-1.89627 -0.53155,-2.56381 -0.0738,-0.39238 -0.1143,-0.60378 -0.15637,-0.74745 -0.0741,-0.25241 -0.20955,-0.38973 -0.4019,-0.41169 0,0 -0.0302,-0.004 -0.0548,-0.004 -0.0243,0 -0.0577,0.005 -0.0577,0.005 -0.1905,0.0227 -0.32517,0.16007 -0.39872,0.41116 -0.0421,0.14367 -0.0826,0.35507 -0.15637,0.74745 -0.12568,0.66754 -0.41355,2.01533 -0.53155,2.56381 -0.0757,0.35163 -0.25453,0.40032 -0.4363,0.40032 -0.1905,0 -0.38867,-0.12489 -0.59875,-0.25665 -0.0492,-0.031 -0.21378,-0.13123 -0.21378,-0.13123 -0.45059,-0.27332 -0.90065,-0.33894 -1.39171,-0.14314 -0.1061,0.0423 -0.2106,0.0897 -0.31009,0.13763 0.068,0.21325 0.15265,0.42313 0.25134,0.62025 0.10874,-0.0534 0.22279,-0.10648 0.33921,-0.14088 0.16774,-0.0495 0.33972,-0.0521 0.50641,0.004 0.16192,0.0542 0.30612,0.15028 0.44979,0.24051 0.27067,0.17012 0.57732,0.363 0.96758,0.363 0.57838,0 0.98425,-0.34528 1.1139,-0.94747 0.10054,-0.46672 0.32332,-1.50865 0.46646,-2.22726 0,0 0.36671,1.76054 0.46699,2.22726 0.12964,0.60219 0.53578,0.94747 1.11416,0.94747 0.39026,0 0.69691,-0.19288 0.96758,-0.363 0.14367,-0.0902 0.28786,-0.18627 0.44979,-0.24051 0.16642,-0.0558 0.33867,-0.0532 0.50641,-0.004 0.11642,0.0344 0.23029,0.0875 0.33904,0.14093 0.099,-0.19711 0.18338,-0.40709 0.25137,-0.62034 -0.0995,-0.0479 -0.20385,-0.0953 -0.30995,-0.13759"
             fill="#ffffff"
             id="path26-2"
             style="stroke-width:0.264583" />
        </g>
      </g>
    </g>
  </g>
</svg>
