<?xml version="1.0" encoding="UTF-8" standalone="no"?>
<!-- Created with Inkscape (http://www.inkscape.org/) -->

<svg
   width="77.186157mm"
   height="77.186157mm"
   viewBox="0 0 77.186155 77.186157"
   version="1.1"
   id="svg5"
   inkscape:version="1.1.1 (1:1.1+202109281943+c3084ef5ed)"
   sodipodi:docname="preview.svg"
   inkscape:export-filename="/home/lucasgabmoreno/Descargas/preview.png"
   inkscape:export-xdpi="72"
   inkscape:export-ydpi="72"
   xmlns:inkscape="http://www.inkscape.org/namespaces/inkscape"
   xmlns:sodipodi="http://sodipodi.sourceforge.net/DTD/sodipodi-0.dtd"
   xmlns="http://www.w3.org/2000/svg"
   xmlns:svg="http://www.w3.org/2000/svg">
  <sodipodi:namedview
     id="namedview7"
     pagecolor="#505050"
     bordercolor="#eeeeee"
     borderopacity="1"
     inkscape:pageshadow="0"
     inkscape:pageopacity="0"
     inkscape:pagecheckerboard="0"
     inkscape:document-units="mm"
     showgrid="false"
     fit-margin-top="0"
     fit-margin-left="0"
     fit-margin-right="0"
     fit-margin-bottom="0"
     inkscape:zoom="0.72066326"
     inkscape:cx="224.79292"
     inkscape:cy="243.52567"
     inkscape:window-width="1366"
     inkscape:window-height="741"
     inkscape:window-x="0"
     inkscape:window-y="0"
     inkscape:window-maximized="1"
     inkscape:current-layer="layer1" />
  <defs
     id="defs2" />
  <g
     inkscape:label="Capa 1"
     inkscape:groupmode="layer"
     id="layer1"
     transform="translate(-211.00841,-79.908699)">
    <circle
       style="fill:#222d32;fill-opacity:1;fill-rule:evenodd;stroke-width:0.214837"
       id="path79"
       cx="249.60149"
       cy="118.50178"
       r="38.593079" />
    <g
       id="g35"
       transform="matrix(0.68503221,0,0,0.68503221,228.33097,96.808635)">
      <circle
         style="opacity:0.2"
         cx="32"
         cy="33"
         r="28"
         id="circle2" />
      <path
         style="opacity:0.1"
         d="m 31.988333,59.969839 c -15.503815,0 -27.985666,-12.481451 -27.985666,-27.985667 0,-0.234677 -0.006,-0.466373 0,-0.699631 0.3700156,15.176819 12.716048,27.285675 27.985666,27.285675 15.269019,0 27.615672,-12.108656 27.985667,-27.285675 0.006,0.233257 0,0.464954 0,0.699631 0,15.503816 -12.481451,27.985667 -27.985667,27.985667 z"
         id="path4" />
      <path
         style="fill:#109f5b"
         d="m 8.6998295,16.504263 c -0.4817493,0.731944 -0.927343,1.516337 -1.37889,2.292941 a 27.999667,27.999667 0 0 0 -3.3202729,13.202968 27.999667,27.999667 0 0 0 27.9996664,27.999667 27.999667,27.999667 0 0 0 0.429683,-0.0156 L 45.68767,37.937602 c -1.062027,1.729879 -5.486734,3.944909 -7.374912,5.035096 -6.041928,3.488358 -13.714563,1.233551 -17.202919,-4.808537 z"
         id="path6" />
      <path
         style="fill:#ffce41"
         d="m 32.031583,18.000339 c -0.03094,0 4.443979,1.995873 6.331957,3.085901 4.824814,2.785647 5.328398,12.734559 5.339778,16.76152 l 0.808584,0.468744 -0.824208,1.425765 c -6.4e-5,0.0014 0,0.0664 0,0.0664 l -0.312496,0.472656 -11.374865,19.702892 c 0.07422,0.0019 0.148519,0.0082 0.222654,0.0078 a 27.999667,27.999667 0 0 0 1.160142,-0.04296 c 0.224261,-0.0104 0.448167,-0.0116 0.671868,-0.02734 a 27.999667,27.999667 0 0 0 2.632781,-0.32031 c 0.05748,-0.0096 0.114458,-0.0213 0.171878,-0.03126 A 27.999667,27.999667 0 0 0 60,32.000173 27.999667,27.999667 0 0 0 56.207077,18.000339 Z"
         id="path8" />
      <path
         style="fill:#dd4d3e"
         d="m 31.988615,4.0005059 a 27.999667,27.999667 0 0 0 -0.48437,0.01562 27.999667,27.999667 0 0 0 -1.484356,0.054687 27.999667,27.999667 0 0 0 -0.08204,0.01172 27.999667,27.999667 0 0 0 -2.53122,0.304684 c -0.0857,0.01408 -0.172278,0.024532 -0.257809,0.039061 -0.0052,8.94e-4 -0.0104,0.00298 -0.0156,0.0039 A 27.999667,27.999667 0 0 0 24.51214,5.020025 27.999667,27.999667 0 0 0 19.301266,7.0473447 27.999667,27.999667 0 0 0 18.680179,7.4028092 27.999667,27.999667 0 0 0 7.766247,18.01987 l 11.378771,19.710702 0.238278,0.476558 0.05859,0.03516 0.53515,0.929677 4.910097,3.945265 1.363266,-0.582025 1.562481,0.984364 C 27.627985,43.178803 27.442656,42.670549 27.262108,42.101614 L 36.445592,38.175882 26.9418,21.711233 c 0.869413,-2.005689 2.389615,-3.412261 5.058533,-3.710894 h 24.206744 a 27.999667,27.999667 0 0 0 -1.519514,-2.351534 27.999667,27.999667 0 0 0 -1.710917,-2.1406 27.999667,27.999667 0 0 0 -0.07422,-0.08594 A 27.999667,27.999667 0 0 0 51.086044,11.55901 27.999667,27.999667 0 0 0 50.89464,11.383231 27.999667,27.999667 0 0 0 48.976693,9.7777812 27.999667,27.999667 0 0 0 48.707167,9.5746586 27.999667,27.999667 0 0 0 46.72672,8.2270182 27.999667,27.999667 0 0 0 46.343913,7.9926462 27.999667,27.999667 0 0 0 44.351748,6.9067215 27.999667,27.999667 0 0 0 43.785349,6.6371935 27.999667,27.999667 0 0 0 41.87131,5.8364219 27.999667,27.999667 0 0 0 41.133037,5.5629875 27.999667,27.999667 0 0 0 39.289309,5.0004942 27.999667,27.999667 0 0 0 38.36354,4.7622158 27.999667,27.999667 0 0 0 36.640902,4.4184699 27.999667,27.999667 0 0 0 35.543259,4.2544093 27.999667,27.999667 0 0 0 33.972966,4.0981611 a 27.999667,27.999667 0 0 0 -1.972633,-0.097655 27.999667,27.999667 0 0 0 -0.0118,0 z"
         id="path10" />
      <path
         style="opacity:0.2;fill:#ffffff"
         d="M 32,4.0001605 A 27.999667,27.999667 0 0 0 4,32.00016 27.999667,27.999667 0 0 0 4.0175782,32.492348 27.999667,27.999667 0 0 1 32,5.0001605 27.999667,27.999667 0 0 1 59.972656,32.50016 a 27.999667,27.999667 0 0 0 0.02539,-0.5 A 27.999667,27.999667 0 0 0 32,4.0001605 Z"
         id="path12" />
      <rect
         style="opacity:0.2"
         width="28"
         height="28"
         x="-47"
         y="-46"
         rx="14"
         ry="14"
         transform="matrix(0,-1,-1,0,0,0)"
         id="rect14" />
      <rect
         style="fill:#ffffff"
         width="28"
         height="28"
         x="-46"
         y="-46"
         rx="14"
         ry="14"
         transform="matrix(0,-1,-1,0,0,0)"
         id="rect16" />
      <rect
         style="fill:#4587f3"
         width="22"
         height="22"
         x="-43"
         y="-43"
         rx="11"
         ry="11"
         transform="matrix(0,-1,-1,0,0,0)"
         id="rect18" />
    </g>
  </g>
</svg>
