<?xml version="1.0" encoding="UTF-8" standalone="no"?>
<svg
   xmlns:dc="http://purl.org/dc/elements/1.1/"
   xmlns:cc="http://creativecommons.org/ns#"
   xmlns:rdf="http://www.w3.org/1999/02/22-rdf-syntax-ns#"
   xmlns:svg="http://www.w3.org/2000/svg"
   xmlns="http://www.w3.org/2000/svg"
   xmlns:sodipodi="http://sodipodi.sourceforge.net/DTD/sodipodi-0.dtd"
   xmlns:inkscape="http://www.inkscape.org/namespaces/inkscape"
   width="77.186157mm"
   height="77.186157mm"
   viewBox="0 0 77.186155 77.186157"
   version="1.1"
   id="svg5"
   inkscape:version="1.0.2 (e86c870879, 2021-01-15)"
   sodipodi:docname="preview.svg"
   inkscape:export-filename="/home/lucasgabmoreno/Descargas/preview.png"
   inkscape:export-xdpi="72"
   inkscape:export-ydpi="72">
  <metadata
     id="metadata17">
    <rdf:RDF>
      <cc:Work
         rdf:about="">
        <dc:format>image/svg+xml</dc:format>
        <dc:type
           rdf:resource="http://purl.org/dc/dcmitype/StillImage" />
      </cc:Work>
    </rdf:RDF>
  </metadata>
  <sodipodi:namedview
     id="namedview7"
     pagecolor="#505050"
     bordercolor="#eeeeee"
     borderopacity="1"
     inkscape:pageshadow="0"
     inkscape:pageopacity="0"
     inkscape:pagecheckerboard="0"
     inkscape:document-units="mm"
     showgrid="false"
     fit-margin-top="0"
     fit-margin-left="0"
     fit-margin-right="0"
     fit-margin-bottom="0"
     inkscape:zoom="0.72066326"
     inkscape:cx="222.7115"
     inkscape:cy="243.52567"
     inkscape:window-width="1280"
     inkscape:window-height="774"
     inkscape:window-x="0"
     inkscape:window-y="0"
     inkscape:window-maximized="1"
     inkscape:current-layer="layer1"
     inkscape:document-rotation="0" />
  <defs
     id="defs2" />
  <g
     inkscape:label="Capa 1"
     inkscape:groupmode="layer"
     id="layer1"
     transform="translate(-211.00841,-79.908699)">
    <circle
       style="fill:#222d32;fill-opacity:1;fill-rule:evenodd;stroke-width:0.214837"
       id="path79"
       cx="249.60149"
       cy="118.50178"
       r="38.593079" />
    <g
       id="g25"
       transform="matrix(0.76809366,0,0,0.76809366,225.62177,93.133749)">
      <path
         style="opacity:0.2"
         d="m 4.050798,32.000828 c -0.0118,0.33399 -0.050799,0.661981 -0.050799,0.999971 C 3.9999994,48.512357 16.487643,61 31.9992,61 47.510757,61 59.998401,48.512357 59.998401,33.000799 c 0,-0.33799 -0.04,-0.665981 -0.05,-0.999971 C 59.420417,47.042399 47.172767,59.000057 31.9992,59.000057 16.825233,59.000057 4.5779829,47.042399 4.049998,32.000828 Z"
         id="path2" />
      <path
         style="fill:#8034a9"
         d="m 59.998401,32.000856 c 0,-15.511557 -12.487644,-27.9992001 -27.999201,-27.9992001 -15.511557,0 -27.9992006,12.4876431 -27.9992006,27.9992001 0,15.511558 12.4876436,27.999201 27.9992006,27.999201 15.511557,0 27.999201,-12.487643 27.999201,-27.999201 z"
         id="path4-6" />
      <path
         style="opacity:0.1;fill:#ffffff"
         d="M 32,4.0019531 C 16.488443,4.0019531 4,16.488443 4,32 4,32.113553 4.011285,32.224036 4.017578,32.335938 4.3691113,17.134615 16.711164,5 32,5 47.288836,5 59.630889,17.134615 59.982422,32.335938 59.988693,32.224116 60,32.113445 60,32 60,16.488443 47.511557,4.0019531 32,4.0019531 Z"
         id="path6-7" />
      <path
         style="opacity:0.2"
         d="m 46.820312,19.005859 c -0.852136,-0.0398 -3.253167,0.244804 -7.005859,2.855469 C 37.715081,21.228289 35.318607,20.993959 32.820312,21 c -2.285447,0.0055 -4.655418,0.192771 -6.958984,0.861328 -3.753893,-2.610525 -5.672416,-2.893713 -6.52539,-2.853516 -0.284391,0.0134 -0.421875,0.05664 -0.421876,0.05664 -1.427098,3.702095 -0.524199,6.440914 -0.253906,7.121094 C 16.983684,28.064714 16,30.464475 16,33.400391 c 0,10.307306 6.678613,12.616141 12.498047,13.294921 -0.748139,0.672081 -1.218917,2.061678 -1.457031,3.798829 -1.493057,0.68858 -5.498204,2.373814 -7.835938,-1.736329 0,0 -1.383047,-2.583643 -4.013672,-2.773437 0,0 -2.557376,-0.03303 -0.177734,1.634766 0,0 1.71789,0.827753 2.910156,3.935547 0,0 1.770575,4.730421 9.060547,3.105468 0.0061,1.047804 0.01049,3.007323 0.01563,4.890625 C 28.622178,59.841012 30.291843,60 32,60 c 2.782581,0 5.464715,-0.407178 7.998047,-1.15625 0.0066,-2.52223 0.01367,-5.312963 0.01367,-7.1875 0,-2.508329 -1.03697,-4.149893 -1.976563,-4.980469 C 43.872184,46.01032 50,43.734096 50,33.400391 c 0,-2.935916 -0.816482,-5.337651 -2.496094,-7.216797 0.268692,-0.68034 1.170535,-3.417046 -0.259765,-7.119141 0,0 -0.137824,-0.04533 -0.421875,-0.05859 z"
         id="path8-5" />
      <path
         style="fill:#ffffff"
         d="m 46.820312,18.005859 c -0.852136,-0.0398 -3.253167,0.244804 -7.005859,2.855469 C 37.715081,20.228289 35.318606,19.993959 32.820312,20 c -2.285448,0.0055 -4.655418,0.192771 -6.958984,0.861328 -3.753893,-2.610525 -5.672415,-2.893714 -6.52539,-2.853516 -0.284391,0.0134 -0.421876,0.05664 -0.421876,0.05664 -1.427098,3.702095 -0.524199,6.440914 -0.253906,7.121094 C 16.983684,27.064713 16,29.464475 16,32.400391 c 0,10.307306 6.678613,12.616141 12.498047,13.294921 -0.748139,0.672081 -1.218917,2.061678 -1.457031,3.798829 -1.493057,0.68858 -5.498204,2.373814 -7.835938,-1.736329 0,0 -1.383047,-2.583643 -4.013672,-2.773437 0,0 -2.557376,-0.03303 -0.177734,1.634766 0,0 1.71789,0.827754 2.910156,3.935547 0,0 1.770575,4.730421 9.060547,3.105468 0.0073,1.262052 0.01333,3.614568 0.01953,5.890625 C 28.6249,59.840571 30.293171,60 32,60 c 2.781923,0 5.46329,-0.40752 7.996094,-1.15625 0.0075,-2.775016 0.01563,-6.052158 0.01563,-8.1875 0,-2.508329 -1.03697,-4.149893 -1.976563,-4.980469 C 43.872189,45.01032 50,42.734096 50,32.400391 c 0,-2.935916 -0.816482,-5.337651 -2.496094,-7.216797 0.268692,-0.68034 1.170535,-3.417046 -0.259765,-7.119141 0,0 -0.137824,-0.04533 -0.421875,-0.05859 z"
         id="path10-3" />
    </g>
  </g>
</svg>
