<?xml version="1.0" encoding="UTF-8" standalone="no"?>
<!-- Created with Inkscape (http://www.inkscape.org/) -->

<svg
   width="77.186157mm"
   height="77.186157mm"
   viewBox="0 0 77.186155 77.186157"
   version="1.1"
   id="svg5"
   inkscape:version="1.1.1 (1:1.1+202109281943+c3084ef5ed)"
   sodipodi:docname="preview (copia).svg"
   inkscape:export-filename="/home/lucasgabmoreno/Descargas/preview.png"
   inkscape:export-xdpi="72"
   inkscape:export-ydpi="72"
   xmlns:inkscape="http://www.inkscape.org/namespaces/inkscape"
   xmlns:sodipodi="http://sodipodi.sourceforge.net/DTD/sodipodi-0.dtd"
   xmlns="http://www.w3.org/2000/svg"
   xmlns:svg="http://www.w3.org/2000/svg">
  <sodipodi:namedview
     id="namedview7"
     pagecolor="#505050"
     bordercolor="#eeeeee"
     borderopacity="1"
     inkscape:pageshadow="0"
     inkscape:pageopacity="0"
     inkscape:pagecheckerboard="0"
     inkscape:document-units="mm"
     showgrid="false"
     fit-margin-top="0"
     fit-margin-left="0"
     fit-margin-right="0"
     fit-margin-bottom="0"
     inkscape:zoom="0.72066326"
     inkscape:cx="224.79292"
     inkscape:cy="243.52567"
     inkscape:window-width="1366"
     inkscape:window-height="741"
     inkscape:window-x="0"
     inkscape:window-y="0"
     inkscape:window-maximized="1"
     inkscape:current-layer="layer1" />
  <defs
     id="defs2" />
  <g
     inkscape:label="Capa 1"
     inkscape:groupmode="layer"
     id="layer1"
     transform="translate(-211.00841,-79.908699)">
    <circle
       style="fill:#222d32;fill-opacity:1;fill-rule:evenodd;stroke-width:0.214837"
       id="path79"
       cx="249.60149"
       cy="118.50178"
       r="38.593079" />
    <g
       id="g34"
       transform="matrix(0.76437283,0,0,0.76437283,224.13173,93.077447)">
      <path
         style="opacity:0.2"
         d="m 31.232,6.9512 c -1.2809,-0.073839 -2.5709,0.47051 -3.4102,1.5723 -1.3428,1.7628 -1.005,4.2627 0.75781,5.6055 l 3.77,2.871 h -20.35 c -2.216,0 -4,1.784 -4,4 0,2.216 1.784,4 4,4 h 9.0977 l -15.518,11.814 c -1.7631,1.3424 -2.1021,3.8423 -0.75977,5.6055 1.3424,1.7631 3.8423,2.1021 5.6055,0.75977 l 7.605,-5.788 a 21,21 0 0 0 -0.031,0.609 21,21 0 0 0 19.463,20.922 c 0.44237,0.03649 0.8881,0.05996 1.3379,0.06836 a 21,21 0 0 0 0.199,0.01 21,21 0 0 0 0.08,-0.002 c 0.03795,2.07e-4 0.07528,0.0019 0.11328,0.002 11.493,0 20.809,-9.312 20.807,-20.797 -1.4e-5,-0.04576 -0.0036,-0.091 -0.0039,-0.13672 a 21,21 0 0 0 0.004,-0.066 21,21 0 0 0 -0.016,-0.467 c -0.005,-0.15186 -0.0093,-0.30375 -0.01758,-0.45508 a 21,21 0 0 0 -10.948,-17.531 c -5.074,-3.996 -10.44,-7.858 -15.59,-11.781 -0.661,-0.5039 -1.427,-0.7705 -2.196,-0.8148 z"
         id="path2" />
      <path
         style="fill:#f4b43f"
         d="m 31.232,5.9512 c -1.28,-0.0739 -2.57,0.4705 -3.41,1.5722 -1.343,1.7629 -1.005,4.2626 0.758,5.6056 L 32.35,16 H 12 c -2.216,0 -4,1.784 -4,4 0,2.216 1.784,4 4,4 h 9.098 L 5.58,35.814 c -1.7631,1.343 -2.1021,3.843 -0.7597,5.606 1.3424,1.763 3.8423,2.102 5.6057,0.76 l 7.605,-5.789 A 21,21 0 0 0 18,37 21,21 0 0 0 37.463,57.922 c 0.442,0.036 0.888,0.06 1.338,0.068 A 21,21 0 0 0 39,58 21,21 0 0 0 39.08,57.998 C 39.118,57.998 39.155,58 39.193,58 50.686,58 60.002,48.688 60,37.203 60,37.157 59.996,37.112 59.996,37.066 A 21,21 0 0 0 60,37 21,21 0 0 0 59.984,36.533 C 59.979,36.381 59.975,36.229 59.967,36.078 A 21,21 0 0 0 49.018,18.547 C 43.944,14.551 38.578,10.689 33.428,6.766 32.767,6.2621 32.001,5.9955 31.232,5.9512 Z"
         id="path4-3" />
      <path
         style="opacity:0.2"
         d="M 39.004,25.993 A 12.004,12.004 0 0 1 51.007,37.996 12.004,12.004 0 0 1 39.004,50 12.004,12.004 0 0 1 27,37.996 12.004,12.004 0 0 1 39.004,25.993 Z"
         id="path6-67" />
      <path
         style="fill:#ffffff"
         d="m 39.01,25 a 12,12 0 0 1 12,12 12,12 0 0 1 -12,12 12,12 0 0 1 -12,-12 12,12 0 0 1 12,-12 z"
         id="path8-5" />
      <circle
         style="fill:#408ef4"
         cx="39.004002"
         cy="36.993999"
         r="6.0019999"
         id="circle10" />
      <path
         style="opacity:0.2;fill:#ffffff"
         d="M 19.785,25 5.58,35.814 C 4.416,36.70018 3.8876,38.0889 4.039,39.439 4.18046,38.4331 4.70417,37.4808 5.58,36.814 L 21.098,25 Z M 12,16 c -2.216,0 -4,1.784 -4,4 0,0.17126 0.028141,0.33452 0.048828,0.5 0.247,-1.976 1.9065,-3.5 3.9512,-3.5 h 20.35 l -1.3125,-1 z M 31.232,5.951 c -1.2809,-0.073839 -2.5709,0.47051 -3.4102,1.5723 -0.67535,0.88659 -0.9236,1.96 -0.78125,2.9785 0.07825,-0.69479 0.32502,-1.3796 0.78125,-1.9785 0.83926,-1.1018 2.1293,-1.6461 3.4102,-1.5723 0.76852,0.044303 1.5343,0.3109 2.1953,0.81445 5.1507,3.9233 10.516,7.7856 15.59,11.781 a 21,21 0 0 1 10.949,17.531 c 0.0083,0.15133 0.01258,0.30322 0.01758,0.45508 a 21,21 0 0 1 0.0039,0.12109 c 0.0032,-0.15052 0.01175,-0.29988 0.01172,-0.45117 -1.4e-5,-0.04576 -0.0036,-0.091 -0.0039,-0.13672 a 21,21 0 0 0 0.004,-0.065 21,21 0 0 0 -0.016,-0.467 c -0.005,-0.15186 -0.0093,-0.30375 -0.01758,-0.45508 a 21,21 0 0 0 -10.948,-17.531 c -5.074,-3.996 -10.44,-7.858 -15.59,-11.781 -0.661,-0.5039 -1.427,-0.7705 -2.196,-0.8148 z"
         id="path12-3" />
    </g>
  </g>
</svg>
