<?xml version="1.0" encoding="UTF-8" standalone="no"?>
<!-- Created with Inkscape (http://www.inkscape.org/) -->

<svg
   width="77.186157mm"
   height="77.186157mm"
   viewBox="0 0 77.186155 77.186157"
   version="1.1"
   id="svg5"
   inkscape:version="1.1.1 (1:1.1+202109281943+c3084ef5ed)"
   sodipodi:docname="preview.svg"
   inkscape:export-filename="/home/lucasgabmoreno/Descargas/preview.png"
   inkscape:export-xdpi="72"
   inkscape:export-ydpi="72"
   xmlns:inkscape="http://www.inkscape.org/namespaces/inkscape"
   xmlns:sodipodi="http://sodipodi.sourceforge.net/DTD/sodipodi-0.dtd"
   xmlns="http://www.w3.org/2000/svg"
   xmlns:svg="http://www.w3.org/2000/svg">
  <sodipodi:namedview
     id="namedview7"
     pagecolor="#505050"
     bordercolor="#eeeeee"
     borderopacity="1"
     inkscape:pageshadow="0"
     inkscape:pageopacity="0"
     inkscape:pagecheckerboard="0"
     inkscape:document-units="mm"
     showgrid="false"
     fit-margin-top="0"
     fit-margin-left="0"
     fit-margin-right="0"
     fit-margin-bottom="0"
     inkscape:zoom="0.72066326"
     inkscape:cx="224.79292"
     inkscape:cy="243.52567"
     inkscape:window-width="1366"
     inkscape:window-height="741"
     inkscape:window-x="0"
     inkscape:window-y="0"
     inkscape:window-maximized="1"
     inkscape:current-layer="layer1" />
  <defs
     id="defs2" />
  <g
     inkscape:label="Capa 1"
     inkscape:groupmode="layer"
     id="layer1"
     transform="translate(-211.00841,-79.908699)">
    <circle
       style="fill:#222d32;fill-opacity:1;fill-rule:evenodd;stroke-width:0.214837"
       id="path79"
       cx="249.60149"
       cy="118.50178"
       r="38.593079" />
    <g
       id="g23"
       transform="matrix(0.71764912,0,0,0.71764912,226.82457,94.782006)">
      <path
         style="opacity:0.2;fill-rule:evenodd"
         d="M 31.996094,4.0000461 C 30.343263,4.0007203 28.735461,4.6213466 27.46875,5.9316867 L 4.9257812,29.212937 C 3.6836525,30.497969 3.0247184,32.192136 3,33.869187 c -3.716e-4,0.02551 0,0.08736 0,0.115234 -2.339e-4,4.989501 12.606787,0.14379 13.808594,6.244141 0.650298,3.301561 -6.802735,1.789495 -6.802735,5.111328 0,3.896617 12.104532,0.717955 14.714844,4.427734 1.998127,2.839741 -5.079461,2.963012 -3.494141,5.681641 1.35991,2.33208 6.224149,0.838346 7.035157,3.972656 0.926356,3.580265 6.890287,3.180549 10.259765,0.341797 2.065513,-1.740174 -2.744108,-2.829933 -0.867187,-4.771484 1.876796,-1.941689 10.815951,-1.576743 10.316406,-5.791016 -0.330605,-2.789057 -3.79031,-3.095676 -3.84375,-6.246094 -0.186618,-2.66803 3.296372,-1.889718 12.908203,-4.544922 3.84335,-1.805716 3.979482,-2.764749 3.964844,-4.427734 -3.04e-4,-0.03296 0,-0.07811 0,-0.113281 -0.02189,-1.676914 -0.79706,-3.37126 -2.039062,-4.65625 L 36.527344,5.9316867 C 35.260359,4.621209 33.652003,4.0007204 32,4.0000461 Z M 58.417969,44.003952 c -0.445169,-0.0154 -0.894186,0.02398 -1.210938,0.121094 -0.597058,0.188774 -3.426465,0.297316 -3.193359,2.65625 2.562549,1.178917 6.469872,2.116468 6.935547,-0.242188 0.349616,-1.768754 -1.195543,-2.481018 -2.53125,-2.535156 z M 12.972656,51.02153 c -0.249684,0.03257 -0.421991,0.145729 -0.666015,0.251954 -1.951352,0.848979 -3.2586145,2.635685 -1.435547,3.416015 1.823336,0.780145 3.042325,-0.04426 4.640625,-1.011719 1.598571,-0.967924 1.555071,-1.144198 1.439453,-1.517578 -0.221587,0.05067 -1.674693,-0.984773 -3.205078,-1.138672 -0.255021,-0.02441 -0.523821,-0.03257 -0.773438,0 z"
         id="path2" />
      <path
         style="fill:#4f4f4f;fill-rule:evenodd"
         d="M 31.996094,3 C 30.343263,3.0006742 28.735461,3.6213005 27.46875,4.9316406 L 4.9257812,28.212891 C 3.6836525,29.497923 3.0247184,31.19209 3,32.869141 c -3.716e-4,0.02551 0,0.08736 0,0.115234 -2.339e-4,4.989501 12.606787,0.14379 13.808594,6.244141 0.650298,3.301561 -6.802735,1.789495 -6.802735,5.111328 0,3.896617 12.104532,0.717955 14.714844,4.427734 1.998127,2.839741 -5.079461,2.963012 -3.494141,5.681641 1.35991,2.33208 6.224149,0.838346 7.035157,3.972656 0.926356,3.580265 6.890287,3.180549 10.259765,0.341797 2.065513,-1.740174 -2.744108,-2.829933 -0.867187,-4.771484 1.876796,-1.941689 10.815951,-1.576743 10.316406,-5.791016 -0.330605,-2.789057 -3.79031,-3.095676 -3.84375,-6.246094 -0.186618,-2.66803 3.296372,-1.889718 12.908203,-4.544922 3.84335,-1.805716 3.979482,-2.764749 3.964844,-4.427734 -3.04e-4,-0.03296 0,-0.07811 0,-0.113281 -0.02189,-1.676914 -0.79706,-3.37126 -2.039062,-4.65625 L 36.527344,4.9316406 C 35.260359,3.6211629 33.652003,3.0006743 32,3 Z m 26.421875,40.003906 c -0.445169,-0.0154 -0.894186,0.02398 -1.210938,0.121094 -0.597058,0.188774 -3.426465,0.297316 -3.193359,2.65625 2.562549,1.178917 6.469872,2.116468 6.935547,-0.242188 0.349616,-1.768754 -1.195543,-2.481018 -2.53125,-2.535156 z m -45.445313,7.017578 c -0.249684,0.03257 -0.421991,0.145729 -0.666015,0.251954 -1.951352,0.848979 -3.2586145,2.635685 -1.435547,3.416015 1.823336,0.780145 3.042325,-0.04426 4.640625,-1.011719 1.598571,-0.967924 1.555071,-1.144198 1.439453,-1.517578 -0.221587,0.05067 -1.674693,-0.984773 -3.205078,-1.138672 -0.255021,-0.02441 -0.523821,-0.03257 -0.773438,0 z"
         id="path4" />
      <path
         style="opacity:0.2;fill-rule:evenodd"
         d="m 32.103732,11.005186 c 1.700921,0.01447 6.36164,5.782192 10.519968,10.101677 1.169668,1.569454 -0.452428,3.177989 -0.452428,3.177989 l -8.709675,-4.767052 -3.845957,5.221386 -3.393003,-5.106767 -2.036907,7.944627 -5.994721,-3.631908 1.583954,-2.043812 9.387724,-9.646929 c 0.720099,-0.73406 1.271527,-1.261515 2.941018,-1.24852 z"
         id="path6" />
      <path
         style="fill:#ffffff;fill-rule:evenodd"
         d="m 32.103732,10.00514 c 1.700921,0.01447 6.36164,5.782192 10.519968,10.101677 1.169668,1.569454 -0.452428,3.177989 -0.452428,3.177989 L 33.461597,18.517754 29.61564,23.73914 26.222637,18.632373 24.18573,26.577 18.191009,22.945092 19.774963,20.90128 29.162687,11.254351 c 0.720099,-0.73406 1.271527,-1.261515 2.941018,-1.24852 z"
         id="path8" />
      <path
         style="opacity:0.1;fill:#ffffff;fill-rule:evenodd"
         d="M 31.996094,3 C 30.343263,3.0006742 28.735461,3.6213005 27.46875,4.9316406 L 4.9257812,28.212891 C 3.6836525,29.497923 3.0247184,31.19209 3,32.869141 c -3.716e-4,0.02551 0,0.08736 0,0.115234 -6.2e-6,0.133041 0.013784,0.25555 0.03125,0.375 0.1372342,-1.506326 0.7782486,-2.991645 1.8945312,-4.146484 L 27.46875,5.9316406 C 28.735461,4.6213005 30.343263,4.0006742 31.996094,4 H 32 c 1.652003,6.743e-4 3.260359,0.6211629 4.527344,1.9316406 L 58.960938,29.212891 c 1.18559,1.226626 1.937786,2.826313 2.023437,4.427734 0.01356,-0.209192 0.01767,-0.425734 0.01563,-0.658203 -3.04e-4,-0.03296 0,-0.07811 0,-0.113281 -0.02189,-1.676914 -0.79706,-3.37126 -2.039062,-4.65625 L 36.527344,4.9316406 C 35.260359,3.6211629 33.652003,3.0006743 32,3 Z M 16.761719,40.056641 c -0.709454,2.21212 -6.75586,1.286364 -6.75586,4.283203 0,0.172584 0.03251,0.326617 0.07813,0.472656 0.76503,-2.631606 7.337195,-1.47389 6.72461,-4.583984 -0.01195,-0.06065 -0.0327,-0.113371 -0.04687,-0.171875 z m 27.402343,2.322265 c -0.03427,0.174433 -0.05221,0.360237 -0.03711,0.576172 0.05225,3.080343 3.352398,3.448695 3.808594,6.070313 0.053,-0.254283 0.07042,-0.526718 0.03516,-0.824219 -0.314927,-2.656795 -3.461992,-3.066763 -3.806641,-5.822266 z m 14.253907,0.625 c -0.445169,-0.0154 -0.894186,0.02398 -1.210938,0.121094 -0.597058,0.188774 -3.426465,0.297316 -3.193359,2.65625 0.0334,0.01537 0.07162,0.02965 0.105469,0.04492 0.508545,-1.434479 2.585408,-1.5423 3.08789,-1.701172 0.316752,-0.09711 0.765769,-0.136494 1.210938,-0.121094 1.06519,0.04317 2.247308,0.515359 2.511719,1.597656 0.0051,-0.02217 0.01503,-0.03972 0.01953,-0.0625 0.349616,-1.768754 -1.195543,-2.481018 -2.53125,-2.535156 z m -45.445313,7.017578 c -0.249684,0.03257 -0.421991,0.145728 -0.666015,0.251954 -1.560723,0.679027 -2.7033799,1.955772 -2.167969,2.839843 0.306302,-0.684062 1.139076,-1.392201 2.167969,-1.839843 0.244024,-0.106225 0.416331,-0.219384 0.666015,-0.251954 0.249617,-0.03257 0.518417,-0.02441 0.773438,0 1.122363,0.112868 2.193406,0.695469 2.777344,0.980469 0.520659,-0.403309 0.508299,-0.581618 0.427734,-0.841797 -0.221587,0.05067 -1.674693,-0.984773 -3.205078,-1.138672 -0.255021,-0.02441 -0.523821,-0.03257 -0.773438,0 z m 11.982422,0.175782 c -0.723358,1.496824 -4.618427,2.044928 -3.835937,3.99414 0.749828,-1.490441 4.659625,-2.033973 3.835937,-3.99414 z m 12.390625,5.226562 c -0.580468,1.137142 1.025269,1.989292 1.542969,2.917969 0.649923,-1.055677 -1.050519,-1.89695 -1.542969,-2.917969 z"
         id="path10" />
    </g>
  </g>
</svg>
